<?xml version="1.0" standalone="no"?>
<!DOCTYPE svg PUBLIC "-//W3C//DTD SVG 20010904//EN"
 "http://www.w3.org/TR/2001/REC-SVG-20010904/DTD/svg10.dtd">
<svg version="1.0" xmlns="http://www.w3.org/2000/svg"
 width="1298.000000pt" height="1607.000000pt" viewBox="0 0 1298.000000 1607.000000"
 preserveAspectRatio="xMidYMid meet">

<g transform="translate(0.000000,1607.000000) scale(0.100000,-0.100000)"
fill="#000000" stroke="none">
<path d="M6916 10692 l-29 -37 34 32 c18 18 31 35 28 37 -3 3 -18 -12 -33 -32z"/>
<path d="M7134 10638 l-19 -23 23 19 c21 18 27 26 19 26 -2 0 -12 -10 -23 -22z"/>
<path d="M6164 10598 l-19 -23 23 19 c21 18 27 26 19 26 -2 0 -12 -10 -23 -22z"/>
<path d="M6405 10558 l-50 -53 53 50 c48 46 57 55 49 55 -1 0 -25 -24 -52 -52z"/>
<path d="M6049 10563 l-24 -28 28 24 c15 14 27 26 27 28 0 8 -8 1 -31 -24z"/>
<path d="M7189 10413 c-13 -16 -12 -17 4 -4 9 7 17 15 17 17 0 8 -8 3 -21 -13z"/>
<path d="M5509 10403 c-13 -16 -12 -17 4 -4 16 13 21 21 13 21 -2 0 -10 -8
-17 -17z"/>
<path d="M5597 10318 l-52 -51 50 43 c71 61 70 60 61 60 -4 0 -31 -23 -59 -52z"/>
<path d="M8259 10243 c-13 -16 -12 -17 4 -4 16 13 21 21 13 21 -2 0 -10 -8
-17 -17z"/>
<path d="M7025 10188 l-40 -43 43 40 c39 36 47 45 39 45 -2 0 -21 -19 -42 -42z"/>
<path d="M8114 10198 l-19 -23 23 19 c21 18 27 26 19 26 -2 0 -12 -10 -23 -22z"/>
<path d="M8259 10193 l-24 -28 28 24 c15 14 27 26 27 28 0 8 -8 1 -31 -24z"/>
<path d="M7669 10163 l-24 -28 28 24 c15 14 27 26 27 28 0 8 -8 1 -31 -24z"/>
<path d="M7414 10138 l-19 -23 23 19 c21 18 27 26 19 26 -2 0 -12 -10 -23 -22z"/>
<path d="M8219 10143 c-13 -16 -12 -17 4 -4 9 7 17 15 17 17 0 8 -8 3 -21 -13z"/>
<path d="M7575 10078 l-40 -43 43 40 c39 36 47 45 39 45 -2 0 -21 -19 -42 -42z"/>
<path d="M5870 10090 c-13 -8 -12 -10 3 -10 9 0 17 5 17 10 0 12 -1 12 -20 0z"/>
<path d="M8369 10063 l-24 -28 28 24 c15 14 27 26 27 28 0 8 -8 1 -31 -24z"/>
<path d="M6718 10013 c-8 -10 -19 -25 -23 -33 -8 -13 -7 -13 9 -1 16 14 41 51
33 51 -2 0 -11 -8 -19 -17z"/>
<path d="M7499 10003 c-13 -16 -12 -17 4 -4 9 7 17 15 17 17 0 8 -8 3 -21 -13z"/>
<path d="M8455 9970 c-10 -11 -23 -17 -29 -13 -6 3 -8 3 -4 -2 4 -4 2 -15 -4
-24 -7 -9 5 0 25 18 20 19 37 36 37 38 0 7 -8 2 -25 -17z"/>
<path d="M6214 9938 l-19 -23 23 19 c21 18 27 26 19 26 -2 0 -12 -10 -23 -22z"/>
<path d="M5719 9933 c-13 -16 -12 -17 4 -4 9 7 17 15 17 17 0 8 -8 3 -21 -13z"/>
<path d="M6390 9920 c-19 -17 -30 -30 -24 -30 6 0 23 14 39 30 36 38 30 38
-15 0z"/>
<path d="M7024 9928 l-19 -23 23 19 c21 18 27 26 19 26 -2 0 -12 -10 -23 -22z"/>
<path d="M6629 9913 c-13 -16 -12 -17 4 -4 9 7 17 15 17 17 0 8 -8 3 -21 -13z"/>
<path d="M8689 9883 c-13 -16 -12 -17 4 -4 9 7 17 15 17 17 0 8 -8 3 -21 -13z"/>
<path d="M8137 9858 c-31 -31 -31 -32 -2 -8 16 14 34 28 40 32 5 5 6 8 2 8 -4
0 -22 -15 -40 -32z"/>
<path d="M5664 9858 l-19 -23 23 19 c21 18 27 26 19 26 -2 0 -12 -10 -23 -22z"/>
<path d="M7685 9850 c-10 -11 -16 -22 -14 -24 2 -2 12 7 22 20 22 29 17 32 -8
4z"/>
<path d="M8260 9850 c-9 -6 -10 -10 -3 -10 6 0 15 5 18 10 8 12 4 12 -15 0z"/>
<path d="M6954 9828 l-19 -23 23 19 c21 18 27 26 19 26 -2 0 -12 -10 -23 -22z"/>
<path d="M6469 9813 c-13 -16 -12 -17 4 -4 9 7 17 15 17 17 0 8 -8 3 -21 -13z"/>
<path d="M6064 9728 l-29 -33 33 29 c30 28 37 36 29 36 -2 0 -16 -15 -33 -32z"/>
<path d="M8149 9693 l-24 -28 28 24 c15 14 27 26 27 28 0 8 -8 1 -31 -24z"/>
<path d="M7284 9668 l-29 -33 33 29 c30 28 37 36 29 36 -2 0 -16 -15 -33 -32z"/>
<path d="M5079 9673 c-13 -16 -12 -17 4 -4 9 7 17 15 17 17 0 8 -8 3 -21 -13z"/>
<path d="M8359 9663 c-13 -16 -12 -17 4 -4 9 7 17 15 17 17 0 8 -8 3 -21 -13z"/>
<path d="M8209 9633 c-13 -16 -12 -17 4 -4 9 7 17 15 17 17 0 8 -8 3 -21 -13z"/>
<path d="M6439 9603 c-13 -16 -12 -17 4 -4 9 7 17 15 17 17 0 8 -8 3 -21 -13z"/>
<path d="M8074 9598 l-19 -23 23 19 c21 18 27 26 19 26 -2 0 -12 -10 -23 -22z"/>
<path d="M8344 9588 l-29 -33 33 29 c30 28 37 36 29 36 -2 0 -16 -15 -33 -32z"/>
<path d="M7659 9583 c-13 -16 -12 -17 4 -4 9 7 17 15 17 17 0 8 -8 3 -21 -13z"/>
<path d="M7409 9563 l-24 -28 28 24 c15 14 27 26 27 28 0 8 -8 1 -31 -24z"/>
<path d="M4945 9538 l-40 -43 43 40 c23 21 42 40 42 42 0 8 -9 0 -45 -39z"/>
<path d="M7549 9553 l-24 -28 28 24 c15 14 27 26 27 28 0 8 -8 1 -31 -24z"/>
<path d="M7854 9538 l-29 -33 33 29 c30 28 37 36 29 36 -2 0 -16 -15 -33 -32z"/>
<path d="M6717 9543 c-4 -3 -7 -11 -7 -17 0 -6 5 -5 12 2 6 6 9 14 7 17 -3 3
-9 2 -12 -2z"/>
<path d="M6550 9483 l-55 -58 58 55 c31 30 57 56 57 57 0 8 -10 -1 -60 -54z"/>
<path d="M7959 9503 c-13 -16 -12 -17 4 -4 9 7 17 15 17 17 0 8 -8 3 -21 -13z"/>
<path d="M8704 9448 l-19 -23 23 19 c12 11 22 21 22 23 0 8 -8 2 -26 -19z"/>
<path d="M6090 9445 c-7 -8 -16 -13 -20 -10 -5 3 -11 2 -14 -3 -10 -17 24 -8
41 10 9 10 14 18 11 18 -3 0 -11 -7 -18 -15z"/>
<path d="M5044 9408 l-29 -33 33 29 c17 17 32 31 32 33 0 8 -8 1 -36 -29z"/>
<path d="M7300 9395 c-7 -8 -8 -15 -2 -15 5 0 15 7 22 15 7 8 8 15 2 15 -5 0
-15 -7 -22 -15z"/>
<path d="M5399 9353 c-13 -16 -12 -17 4 -4 9 7 17 15 17 17 0 8 -8 3 -21 -13z"/>
<path d="M5809 9353 c-13 -16 -12 -17 4 -4 9 7 17 15 17 17 0 8 -8 3 -21 -13z"/>
<path d="M8194 9348 l-19 -23 23 19 c21 18 27 26 19 26 -2 0 -12 -10 -23 -22z"/>
<path d="M8444 9328 l-29 -33 33 29 c30 28 37 36 29 36 -2 0 -16 -15 -33 -32z"/>
<path d="M5285 9320 c-10 -11 -16 -22 -14 -24 2 -2 12 7 22 20 22 29 17 32 -8
4z"/>
<path d="M6214 9318 l-19 -23 23 19 c21 18 27 26 19 26 -2 0 -12 -10 -23 -22z"/>
<path d="M8094 9308 l-19 -23 23 19 c21 18 27 26 19 26 -2 0 -12 -10 -23 -22z"/>
<path d="M4772 9297 c-12 -13 -22 -27 -22 -31 0 -4 11 5 25 20 14 15 25 29 25
30 0 8 -7 3 -28 -19z"/>
<path d="M4589 9273 l-24 -28 28 24 c25 23 32 31 24 31 -2 0 -14 -12 -28 -27z"/>
<path d="M4919 9283 c-13 -16 -12 -17 4 -4 9 7 17 15 17 17 0 8 -8 3 -21 -13z"/>
<path d="M5030 9285 c-7 -9 -11 -18 -8 -20 3 -3 11 1 18 10 7 9 11 18 8 20 -3
3 -11 -1 -18 -10z"/>
<path d="M5285 9279 c-11 -17 1 -21 15 -4 8 9 8 15 2 15 -6 0 -14 -5 -17 -11z"/>
<path d="M6167 9253 c-10 -9 -9 -23 2 -23 5 0 11 7 15 15 5 15 -5 20 -17 8z"/>
<path d="M4654 9218 l-19 -23 23 19 c21 18 27 26 19 26 -2 0 -12 -10 -23 -22z"/>
<path d="M5769 9203 l-34 -38 38 34 c20 19 37 36 37 38 0 8 -8 0 -41 -34z"/>
<path d="M7694 9218 l-19 -23 23 19 c21 18 27 26 19 26 -2 0 -12 -10 -23 -22z"/>
<path d="M4804 9198 l-29 -33 33 29 c30 28 37 36 29 36 -2 0 -16 -15 -33 -32z"/>
<path d="M6125 9200 c-3 -6 1 -7 9 -4 18 7 21 14 7 14 -6 0 -13 -4 -16 -10z"/>
<path d="M4339 9183 c-13 -16 -12 -17 4 -4 16 13 21 21 13 21 -2 0 -10 -8 -17
-17z"/>
<path d="M8270 9175 c-7 -8 -8 -15 -2 -15 5 0 15 7 22 15 7 8 8 15 2 15 -5 0
-15 -7 -22 -15z"/>
<path d="M8541 9159 c-13 -11 -22 -22 -19 -24 2 -3 15 6 28 20 28 30 24 32 -9
4z"/>
<path d="M8959 9153 l-24 -28 28 24 c15 14 27 26 27 28 0 8 -8 1 -31 -24z"/>
<path d="M6374 9156 c-10 -8 -16 -17 -13 -20 3 -3 14 3 24 14 21 23 17 26 -11
6z"/>
<path d="M5719 9143 c-13 -16 -12 -17 4 -4 9 7 17 15 17 17 0 8 -8 3 -21 -13z"/>
<path d="M6439 9083 l-34 -38 38 34 c34 33 42 41 34 41 -2 0 -19 -17 -38 -37z"/>
<path d="M6939 9103 c-13 -16 -12 -17 4 -4 9 7 17 15 17 17 0 8 -8 3 -21 -13z"/>
<path d="M8427 9048 c-10 -11 -17 -22 -14 -24 2 -2 12 5 22 16 23 26 16 33 -8
8z"/>
<path d="M4547 9053 c-4 -3 -7 -11 -7 -17 0 -6 5 -5 12 2 6 6 9 14 7 17 -3 3
-9 2 -12 -2z"/>
<path d="M7035 9020 c-21 -22 -37 -41 -34 -43 2 -2 21 16 43 40 49 54 43 56
-9 3z"/>
<path d="M8189 9003 l-34 -38 38 34 c34 33 42 41 34 41 -2 0 -19 -17 -38 -37z"/>
<path d="M4579 9003 c-13 -16 -12 -17 4 -4 16 13 21 21 13 21 -2 0 -10 -8 -17
-17z"/>
<path d="M7575 8944 c-33 -31 -51 -51 -40 -45 19 9 115 101 105 101 -3 -1 -32
-26 -65 -56z"/>
<path d="M7149 8913 l-34 -38 38 34 c20 19 37 36 37 38 0 8 -8 0 -41 -34z"/>
<path d="M5878 8909 c-20 -18 -25 -26 -13 -21 21 11 63 52 52 52 -4 0 -21 -14
-39 -31z"/>
<path d="M8439 8913 c-13 -16 -12 -17 4 -4 9 7 17 15 17 17 0 8 -8 3 -21 -13z"/>
<path d="M5669 8893 c-13 -16 -12 -17 4 -4 9 7 17 15 17 17 0 8 -8 3 -21 -13z"/>
<path d="M6231 8887 c-13 -21 -12 -21 5 -5 10 10 16 20 13 22 -3 3 -11 -5 -18
-17z"/>
<path d="M6879 8893 c-13 -16 -12 -17 4 -4 9 7 17 15 17 17 0 8 -8 3 -21 -13z"/>
<path d="M4299 8853 c-13 -16 -12 -17 4 -4 16 13 21 21 13 21 -2 0 -10 -8 -17
-17z"/>
<path d="M5535 8850 c-16 -18 -31 -20 -152 -20 l-133 0 -2 -147 c-1 -82 -3
-127 -5 -101 -2 25 -11 52 -19 58 -7 7 -14 17 -14 22 0 17 -93 108 -117 114
-13 4 -23 10 -23 15 0 5 -20 14 -45 20 -25 6 -43 14 -41 18 2 3 -102 4 -232 1
l-237 -5 -20 -36 c-22 -40 -66 -109 -96 -151 -10 -15 -19 -32 -19 -38 0 -16
-20 -12 -27 6 -3 9 -15 26 -27 39 -35 37 -97 149 -93 166 4 13 -10 16 -89 18
-69 2 -94 -1 -94 -10 0 -19 80 -149 110 -179 8 -8 74 -112 93 -146 15 -28 15
-33 2 -44 -8 -7 -15 -19 -15 -27 0 -8 -10 -28 -22 -43 -13 -16 -38 -53 -57
-84 -18 -30 -39 -60 -47 -67 -8 -6 -12 -15 -9 -19 3 -4 -2 -14 -11 -21 -8 -7
-14 -8 -13 -3 8 43 6 44 -150 44 l-149 0 0 90 0 89 136 3 137 3 -3 65 c-2 35
-6 68 -8 72 -3 5 -63 8 -134 8 l-129 0 0 60 1 60 66 1 c37 0 90 1 117 2 l50 2
1 60 c0 33 -4 66 -9 73 -7 9 -58 12 -191 12 l-182 0 -1 -360 c0 -261 3 -360
11 -361 6 -1 18 -3 26 -4 8 0 23 -5 33 -9 9 -5 23 -4 30 1 18 14 173 17 182 4
3 -6 12 -8 18 -4 18 11 121 10 129 -1 5 -7 8 -5 8 4 0 13 1 13 10 0 8 -12 11
-13 19 -1 5 8 11 10 15 3 11 -19 74 -8 100 18 15 13 26 29 26 35 0 6 23 46 50
90 28 44 50 84 50 91 0 6 6 17 13 23 11 8 27 -10 75 -84 34 -52 62 -98 62
-103 0 -5 11 -21 25 -36 14 -15 25 -31 25 -37 0 -5 14 -9 30 -9 17 0 30 5 30
10 0 6 8 5 20 -2 15 -10 25 -10 38 -2 10 7 26 8 40 3 13 -5 33 -4 49 2 20 7
28 6 35 -3 6 -10 10 -10 17 1 5 8 16 11 25 8 13 -5 16 2 16 46 l0 52 58 0
c148 -1 252 61 319 189 8 16 19 50 23 75 6 32 8 -1 8 -112 0 -155 0 -158 -26
-190 l-26 -32 27 24 27 24 0 -30 c0 -44 10 -69 21 -51 7 10 9 10 9 -2 0 -13 2
-13 9 -1 7 11 13 12 23 3 9 -7 26 -8 50 -3 21 5 40 6 43 3 13 -13 98 -13 106
0 7 10 9 10 9 1 0 -7 7 -13 15 -13 8 0 15 4 15 10 0 6 9 6 23 2 12 -5 47 -8
77 -8 l55 1 3 68 c2 49 0 67 -10 68 -7 0 -75 0 -150 1 l-137 0 0 89 0 89 133
0 134 0 4 68 c3 37 3 70 1 75 -2 4 -35 7 -74 7 -47 0 -69 4 -69 12 0 9 -3 9
-12 0 -17 -17 -92 -16 -82 1 6 10 4 10 -7 0 -24 -24 -30 -13 -27 49 l3 61 113
-2 112 -2 1 33 c4 116 3 118 -62 118 -51 0 -52 0 -34 20 10 11 16 20 13 20 -3
0 -13 -9 -23 -20z m-845 -375 c0 -184 -2 -335 -4 -335 -8 0 -74 97 -105 155
-18 32 -46 74 -62 92 -16 19 -29 42 -29 51 0 10 -5 23 -10 28 -12 12 40 120
88 182 15 20 39 55 52 77 21 37 59 85 67 85 1 0 3 -151 3 -335z m321 179 c47
-29 69 -74 69 -139 0 -103 -69 -165 -184 -165 l-56 0 0 165 0 165 65 0 c53 0
73 -5 106 -26z"/>
<path d="M4534 8428 l-29 -33 33 29 c30 28 37 36 29 36 -2 0 -16 -15 -33 -32z"/>
<path d="M4595 8349 c-4 -6 -5 -12 -2 -15 2 -3 7 2 10 11 7 17 1 20 -8 4z"/>
<path d="M6184 8848 l-19 -23 23 19 c21 18 27 26 19 26 -2 0 -12 -10 -23 -22z"/>
<path d="M6435 8850 c-14 -16 -31 -20 -76 -20 -32 0 -60 -4 -63 -9 -3 -4 -6
-162 -6 -349 -1 -259 -4 -343 -13 -351 -12 -10 -44 19 -126 111 l-24 27 62 60
c43 42 61 66 61 84 0 14 4 28 9 31 4 3 9 40 10 83 2 108 -22 171 -89 231 -73
66 -130 82 -307 82 l-143 0 0 -102 c-1 -57 0 -179 0 -271 1 -124 -3 -173 -12
-185 -9 -11 -9 -14 -1 -9 9 6 13 -14 15 -75 l3 -82 35 -2 c19 0 35 -2 35 -3 0
-1 12 -4 27 -6 36 -5 47 11 50 73 l3 52 36 0 c34 0 68 -23 69 -46 1 -5 22 -25
48 -44 43 -32 53 -35 125 -36 51 -1 77 2 77 10 0 6 5 4 10 -4 8 -13 11 -12 23
4 12 17 15 17 29 2 18 -18 44 -21 52 -7 4 5 22 5 43 0 21 -4 42 -4 47 1 4 4 9
170 10 369 1 304 -1 361 -13 361 -11 0 -10 5 4 20 10 11 16 20 13 20 -3 0 -13
-9 -23 -20z m-386 -195 c39 -21 50 -33 59 -64 23 -75 9 -144 -39 -188 -20 -18
-123 -43 -178 -43 -6 0 -10 63 -10 160 l0 160 59 0 c45 0 73 -6 109 -25z"/>
<path d="M5944 8498 l-19 -23 23 19 c12 11 22 21 22 23 0 8 -8 2 -26 -19z"/>
<path d="M8285 8828 l-40 -43 43 40 c23 21 42 40 42 42 0 8 -9 0 -45 -39z"/>
<path d="M6967 8832 c-3 -4 -5 -74 -4 -154 1 -85 -2 -144 -7 -141 -5 4 -6 0
-1 -6 4 -7 8 -111 8 -232 1 -122 5 -215 9 -211 13 13 59 2 51 -12 -3 -6 5 -1
18 11 19 17 28 20 37 11 14 -14 40 5 41 30 0 9 1 24 1 32 1 8 -1 64 -3 123 -2
59 0 110 5 113 4 3 6 10 2 15 -26 42 1 98 33 66 14 -14 14 -18 2 -34 -13 -16
-12 -17 3 -5 14 12 21 11 38 -1 12 -8 28 -25 36 -36 9 -12 20 -21 25 -21 13 0
180 -139 230 -191 20 -20 50 -44 66 -52 16 -9 35 -23 42 -31 22 -26 32 -8 31
52 -2 111 -3 588 -1 624 1 20 -4 40 -10 44 -12 7 -130 7 -137 -1 -2 -2 -3 -92
-3 -200 1 -108 -1 -201 -5 -206 -3 -5 -20 2 -37 17 -18 14 -52 42 -77 62 -25
20 -70 61 -101 89 -31 29 -59 50 -62 46 -4 -3 -7 -2 -7 4 0 5 -41 43 -90 83
-50 40 -99 84 -110 97 -10 13 -21 20 -23 15z m163 -331 c0 -6 -4 -13 -10 -16
-5 -3 -10 1 -10 9 0 9 5 16 10 16 6 0 10 -4 10 -9z"/>
<path d="M7921 8830 c-18 -4 -46 -17 -62 -29 -15 -12 -31 -21 -35 -21 -15 0
-79 -65 -111 -113 -59 -88 -77 -209 -46 -317 6 -19 12 -42 14 -50 2 -8 10 -21
17 -28 6 -7 12 -19 12 -26 0 -7 20 -33 44 -57 40 -41 116 -79 158 -79 9 0 18
-6 21 -12 2 -9 30 -13 94 -13 77 1 94 4 118 23 15 12 38 22 50 22 14 0 46 22
82 58 58 56 93 120 110 203 l5 27 -75 -1 c-69 -1 -77 -3 -86 -25 -6 -12 -11
-29 -11 -37 0 -25 -86 -103 -126 -114 -117 -33 -199 1 -261 107 -50 85 -23
242 50 293 38 28 112 48 156 44 67 -6 147 -50 170 -93 11 -20 10 -27 -6 -45
-10 -12 7 4 37 35 31 32 60 58 65 58 6 0 17 5 25 10 12 8 4 20 -45 70 -33 33
-65 60 -72 60 -7 0 -13 4 -13 8 0 5 -12 14 -26 20 -15 8 -22 17 -18 25 5 9 4
9 -5 1 -8 -8 -25 -9 -49 -3 -45 10 -135 10 -181 -1z"/>
<path d="M6490 8633 c-1 -406 1 -528 10 -537 7 -7 10 -5 10 3 0 9 4 10 13 4
14 -11 57 -11 74 0 6 4 14 3 18 -3 9 -14 68 -13 83 2 9 9 12 9 12 -3 0 -12 2
-12 10 1 9 13 10 13 10 0 0 -12 2 -13 9 -1 6 9 14 10 22 5 8 -5 34 -10 59 -10
101 -3 100 -3 93 -21 -4 -11 5 -6 20 11 28 30 34 42 17 31 -5 -3 -10 21 -12
57 l-3 62 -95 -3 -95 -2 25 28 25 28 -31 -27 c-24 -22 -40 -28 -78 -28 l-47 0
2 88 2 87 136 5 136 5 0 70 0 70 -135 5 -135 5 -2 57 -1 57 116 3 c108 3 117
5 120 23 2 11 16 33 30 50 l27 30 -27 -24 -27 -23 -3 43 -3 44 -192 3 -193 2
0 -197z"/>
<path d="M8419 8823 c-1 -5 -3 -165 -4 -358 -1 -192 -5 -357 -9 -366 -6 -15
-2 -16 39 -8 26 5 52 6 57 3 5 -4 21 -1 34 6 19 11 26 11 39 0 12 -10 18 -10
30 0 12 10 15 10 15 -1 0 -12 2 -12 9 0 7 11 10 11 15 0 5 -11 7 -11 12 -1 5
10 9 10 20 1 10 -8 18 -9 27 0 8 6 16 8 19 5 11 -11 107 -14 113 -4 4 6 11 8
16 5 10 -7 10 -4 11 77 l1 51 -147 -2 c-80 -1 -146 2 -146 7 0 4 14 21 30 37
17 16 30 33 30 38 0 5 -12 -5 -26 -22 -14 -17 -30 -28 -35 -25 -8 4 -7 70 0
136 1 4 61 9 134 10 l132 3 1 62 c1 39 -3 66 -11 73 -7 5 -68 11 -136 13
l-124 2 -2 30 c-1 21 6 38 24 57 25 27 31 28 120 28 l94 0 -3 73 -3 72 -187 3
c-104 1 -189 -1 -189 -5z m181 -146 c0 -2 -9 -12 -19 -21 -19 -17 -19 -17 -14
3 3 12 12 21 19 21 8 0 14 -2 14 -3z"/>
<path d="M7259 8783 c-13 -16 -12 -17 4 -4 9 7 17 15 17 17 0 8 -8 3 -21 -13z"/>
<path d="M7344 8718 l-19 -23 23 19 c12 11 22 21 22 23 0 8 -8 2 -26 -19z"/>
<path d="M9179 8703 l-24 -28 28 24 c15 14 27 26 27 28 0 8 -8 1 -31 -24z"/>
<path d="M8889 8533 c-13 -16 -12 -17 4 -4 9 7 17 15 17 17 0 8 -8 3 -21 -13z"/>
<path d="M5640 8369 c0 -5 5 -7 10 -4 6 3 10 8 10 11 0 2 -4 4 -10 4 -5 0 -10
-5 -10 -11z"/>
<path d="M8862 8347 c-18 -18 -32 -36 -32 -40 0 -7 19 11 54 51 29 34 14 26
-22 -11z"/>
<path d="M8177 8343 c-4 -3 -7 -11 -7 -17 0 -6 5 -5 12 2 6 6 9 14 7 17 -3 3
-9 2 -12 -2z"/>
<path d="M7269 8193 l-24 -28 30 25 c17 14 32 26 34 28 2 1 0 2 -6 2 -5 0 -20
-12 -34 -27z"/>
<path d="M8904 8178 l-29 -33 33 29 c30 28 37 36 29 36 -2 0 -16 -15 -33 -32z"/>
<path d="M4284 8158 l-19 -23 23 19 c12 11 22 21 22 23 0 8 -8 2 -26 -19z"/>
<path d="M7394 8088 l-19 -23 23 19 c21 18 27 26 19 26 -2 0 -12 -10 -23 -22z"/>
<path d="M7340 8029 c0 -5 5 -7 10 -4 6 3 10 8 10 11 0 2 -4 4 -10 4 -5 0 -10
-5 -10 -11z"/>
<path d="M6509 8028 c-5 -18 -6 -38 -1 -34 7 8 12 36 6 36 -2 0 -4 -1 -5 -2z"/>
<path d="M6649 8003 c-13 -16 -12 -17 4 -4 9 7 17 15 17 17 0 8 -8 3 -21 -13z"/>
<path d="M7049 7993 l-24 -28 28 24 c15 14 27 26 27 28 0 8 -8 1 -31 -24z"/>
<path d="M7280 7973 l-45 -47 45 39 c41 35 58 55 48 55 -2 0 -24 -21 -48 -47z"/>
<path d="M5274 7968 l-29 -33 33 29 c30 28 37 36 29 36 -2 0 -16 -15 -33 -32z"/>
<path d="M6599 7960 c-13 -10 -19 -19 -13 -20 6 0 19 9 29 20 23 26 14 26 -16
0z"/>
<path d="M7499 7953 c-13 -16 -12 -17 4 -4 16 13 21 21 13 21 -2 0 -10 -8 -17
-17z"/>
<path d="M4839 7913 l-24 -28 28 24 c25 23 32 31 24 31 -2 0 -14 -12 -28 -27z"/>
<path d="M8569 7913 l-24 -28 28 24 c15 14 27 26 27 28 0 8 -8 1 -31 -24z"/>
<path d="M8824 7908 l-19 -23 23 19 c21 18 27 26 19 26 -2 0 -12 -10 -23 -22z"/>
<path d="M8619 7893 c-13 -16 -12 -17 4 -4 16 13 21 21 13 21 -2 0 -10 -8 -17
-17z"/>
<path d="M4444 7858 l-19 -23 23 19 c21 18 27 26 19 26 -2 0 -12 -10 -23 -22z"/>
<path d="M5025 7869 c-4 -6 -5 -12 -2 -15 2 -3 7 2 10 11 7 17 1 20 -8 4z"/>
<path d="M6710 7865 c-7 -9 -10 -18 -7 -21 3 -3 10 4 17 15 13 25 8 27 -10 6z"/>
<path d="M6547 7842 c-10 -10 -14 -22 -10 -25 7 -8 43 21 43 35 0 14 -16 9
-33 -10z"/>
<path d="M8444 7818 l-29 -33 33 29 c30 28 37 36 29 36 -2 0 -16 -15 -33 -32z"/>
<path d="M8949 7813 l-24 -28 28 24 c15 14 27 26 27 28 0 8 -8 1 -31 -24z"/>
<path d="M5519 7763 c-13 -16 -12 -17 4 -4 9 7 17 15 17 17 0 8 -8 3 -21 -13z"/>
<path d="M7670 7767 c-8 -8 -37 -22 -65 -32 -27 -10 -62 -27 -77 -38 -57 -42
-85 -173 -54 -260 22 -64 101 -111 219 -132 30 -5 41 -13 54 -41 15 -31 15
-37 0 -68 -26 -56 -84 -58 -142 -5 -20 18 -21 17 -65 -16 -25 -19 -50 -39 -57
-45 -7 -5 -17 -10 -23 -10 -38 0 33 -84 95 -111 55 -24 159 -34 212 -20 50 14
119 64 150 109 32 48 43 116 31 182 -6 30 -11 67 -11 82 0 15 -5 25 -11 23 -6
-3 -29 11 -50 31 l-40 34 35 38 34 37 -42 -39 c-31 -29 -46 -37 -60 -31 -10 5
-25 10 -33 11 -103 16 -140 35 -140 70 0 37 81 55 104 23 14 -21 15 -21 73 23
32 25 67 48 78 52 18 7 16 11 -23 46 -27 24 -64 45 -100 55 -31 10 -63 19 -70
21 -7 2 -10 8 -7 14 9 14 2 12 -15 -3z m106 -69 c24 -12 44 -25 44 -30 0 -4 7
-8 15 -8 26 0 15 -14 -34 -46 l-48 -30 -28 22 c-23 18 -33 20 -59 13 -39 -11
-66 -43 -66 -78 0 -30 28 -74 50 -80 8 -2 41 -9 73 -16 33 -6 62 -18 67 -24 4
-7 10 -12 14 -12 18 3 27 -1 55 -25 41 -34 62 -82 63 -141 0 -58 -4 -79 -20
-95 -7 -7 -12 -19 -12 -27 0 -23 -42 -59 -100 -87 -85 -41 -188 -28 -265 33
-19 15 -35 31 -35 35 0 4 20 19 44 33 42 24 47 25 73 11 55 -28 99 -30 138 -6
19 12 40 30 45 40 15 28 12 76 -5 94 -8 8 -15 18 -15 23 0 9 -39 27 -80 38
-74 19 -177 75 -189 102 -6 13 -11 57 -11 97 0 70 2 75 33 106 37 37 87 74 87
65 0 -3 8 -1 18 4 30 18 102 12 148 -11z"/>
<path d="M7534 7498 c-16 -18 -20 -26 -9 -18 30 23 56 50 47 50 -5 0 -21 -14
-38 -32z"/>
<path d="M8444 7758 l-19 -23 23 19 c21 18 27 26 19 26 -2 0 -12 -10 -23 -22z"/>
<path d="M9174 7758 l-19 -23 23 19 c21 18 27 26 19 26 -2 0 -12 -10 -23 -22z"/>
<path d="M6685 7382 l0 -387 88 -3 87 -3 1 53 c0 29 0 121 0 203 -1 83 2 145
7 140 4 -6 30 -29 57 -52 28 -23 77 -67 110 -97 33 -31 68 -59 78 -62 9 -3 17
-10 17 -15 0 -5 6 -9 13 -9 6 -1 30 -16 51 -35 l39 -35 -24 -28 -24 -27 25 22
26 22 26 -23 c15 -12 47 -35 73 -51 l45 -29 -32 -36 c-18 -19 -7 -10 25 20 31
30 57 56 57 59 0 2 -11 -6 -24 -18 -13 -12 -26 -19 -29 -14 -3 4 -3 80 -1 168
2 88 4 165 4 170 0 6 -1 103 -2 218 l-2 207 -87 0 c-82 0 -87 -1 -92 -22 -3
-13 -4 -94 -3 -181 1 -87 -1 -163 -5 -168 -7 -12 -78 33 -130 81 -17 17 -41
36 -52 41 -18 10 -17 14 24 57 l44 47 -42 -39 c-40 -37 -43 -38 -65 -24 -13 9
-36 29 -53 46 -16 16 -45 38 -63 49 -18 11 -58 45 -90 75 -31 30 -62 57 -67
60 -7 4 -10 -121 -10 -380z m165 207 c105 -81 152 -129 145 -148 -5 -13 -4
-13 6 -4 10 10 17 9 36 -8 12 -12 31 -27 42 -33 11 -6 44 -33 75 -59 30 -27
59 -46 64 -43 5 3 9 96 8 210 l-2 204 59 -1 59 -2 3 -115 c2 -111 1 -116 -24
-145 l-26 -30 25 22 25 22 -2 -187 c-1 -233 -1 -232 -11 -232 -6 0 -61 45
-162 133 -14 12 -47 38 -73 57 -86 63 -107 82 -107 96 0 8 -7 14 -15 14 -8 0
-17 11 -21 25 -3 14 -10 22 -15 19 -11 -6 -79 34 -79 47 0 5 -9 9 -19 9 -19 0
-20 -9 -20 -177 0 -98 0 -193 0 -210 -1 -33 -1 -33 -53 -33 l-53 0 0 257 c0
142 4 264 9 272 6 9 5 12 -1 8 -6 -4 -9 24 -9 71 l1 78 35 -34 c19 -18 64 -56
100 -83z"/>
<path d="M6163 7745 c-97 -15 -144 -40 -229 -122 -52 -50 -63 -68 -82 -128
-12 -39 -22 -95 -22 -126 0 -51 -3 -58 -39 -93 -23 -22 -41 -34 -45 -27 -4 5
-6 41 -5 78 1 37 1 146 0 241 l-1 172 -90 0 -90 0 0 -95 c0 -118 2 -106 -18
-130 -16 -19 -16 -19 1 -6 16 13 17 -1 17 -253 l0 -266 27 0 27 0 -35 -37 -34
-38 40 38 c37 34 46 37 98 37 l57 0 2 113 c0 61 1 118 1 125 -1 7 2 11 5 7 3
-3 22 11 42 30 l37 36 12 -30 c6 -17 17 -46 23 -63 22 -58 135 -167 207 -200
36 -16 70 -27 77 -24 7 3 15 2 18 -2 6 -5 84 -4 117 2 98 19 184 67 215 121
12 21 27 41 33 43 6 2 11 10 11 17 0 13 14 49 44 114 6 13 11 49 11 79 l0 56
-192 1 -193 0 0 -82 0 -82 86 0 c85 0 109 -5 88 -19 -6 -4 -13 -14 -16 -23 -9
-23 -133 -62 -178 -56 -51 7 -115 50 -146 99 -21 32 -26 54 -27 102 0 34 5 77
12 97 22 67 110 130 181 128 43 -1 71 -9 65 -18 -3 -5 4 -7 15 -4 11 3 20 1
20 -5 0 -6 10 -12 23 -14 16 -2 22 -9 21 -26 0 -17 4 -21 17 -17 12 4 22 -1
29 -15 6 -11 16 -20 23 -20 16 1 67 46 67 60 0 5 3 10 8 10 4 0 15 7 26 15 18
14 17 16 -14 65 -39 61 -99 103 -176 123 -33 8 -66 17 -74 20 -8 3 -52 -1 -97
-8z m138 -36 c84 -27 90 -31 77 -48 -10 -13 -10 -14 2 -3 21 18 31 15 71 -21
54 -47 57 -71 17 -107 -38 -35 -48 -37 -55 -10 -3 11 -9 20 -14 20 -5 0 -17 8
-27 18 -25 25 -88 53 -131 59 -56 8 -114 -13 -166 -59 -63 -56 -85 -104 -85
-193 0 -148 84 -237 225 -239 93 -1 157 30 199 97 16 26 27 50 24 53 -3 3 -48
6 -99 7 l-94 2 -3 53 -3 52 162 0 162 0 -7 -60 c-6 -54 -19 -95 -45 -140 -4
-8 -16 -32 -26 -52 -10 -21 -26 -40 -36 -43 -9 -3 -20 -12 -23 -20 -3 -8 -12
-15 -20 -15 -9 0 -32 -10 -53 -21 -26 -15 -62 -24 -113 -27 -72 -5 -74 -4 -60
14 14 18 14 18 -4 4 -20 -15 -64 -15 -80 1 -6 5 -19 9 -29 9 -25 0 -154 125
-162 157 -5 20 1 34 27 62 l33 36 -32 -29 c-33 -29 -53 -28 -53 4 0 10 -4 22
-10 25 -13 8 -13 122 -1 130 6 3 13 26 17 50 3 25 10 45 14 45 4 0 11 12 15
27 6 27 70 96 118 127 63 42 194 59 268 35z m-581 -256 c-1 -183 -5 -262 -13
-272 -9 -12 -9 -13 1 -7 9 5 12 -12 12 -73 0 -80 0 -81 -26 -81 -16 0 -23 4
-18 11 5 8 1 8 -14 0 -11 -6 -32 -11 -46 -11 l-26 0 0 267 0 267 28 30 c15 17
18 23 6 13 -11 -9 -24 -17 -27 -17 -4 0 -7 29 -7 64 l0 63 65 2 65 2 0 -258z"/>
<path d="M5949 7473 c-13 -16 -12 -17 4 -4 9 7 17 15 17 17 0 8 -8 3 -21 -13z"/>
<path d="M6509 7273 c-13 -16 -12 -17 4 -4 9 7 17 15 17 17 0 8 -8 3 -21 -13z"/>
<path d="M5140 7741 c-8 -6 -17 -8 -21 -6 -10 7 -98 -74 -114 -106 -17 -33
-20 -170 -5 -199 15 -28 56 -70 68 -70 6 0 12 -3 14 -8 3 -8 135 -52 154 -52
21 0 54 -46 54 -76 0 -35 -35 -74 -67 -74 -31 0 -69 16 -92 39 -20 20 -20 20
-63 -12 -24 -18 -52 -37 -63 -43 -11 -6 -21 -18 -23 -25 -4 -24 70 -95 108
-104 3 -1 18 -7 33 -13 16 -7 52 -12 81 -12 102 0 185 46 248 138 29 42 32 53
31 117 0 41 -7 85 -16 106 -16 37 -69 89 -90 89 -7 0 -1 9 13 20 30 23 19 27
-14 4 -14 -9 -27 -11 -30 -6 -3 6 -30 15 -58 22 -92 20 -117 31 -123 50 -17
53 47 80 91 39 l22 -21 71 53 71 53 -27 29 c-42 45 -118 77 -183 77 -30 0 -62
-4 -70 -9z m188 -54 c23 -15 42 -31 42 -36 0 -5 -17 -20 -37 -32 -21 -13 -41
-28 -45 -33 -6 -8 -10 -8 -15 0 -11 15 -48 34 -67 34 -9 0 -30 -13 -47 -28
-26 -23 -32 -37 -33 -73 -2 -34 2 -45 14 -46 8 -1 51 -10 95 -21 165 -40 228
-109 219 -241 -3 -45 -10 -61 -44 -102 -65 -76 -101 -94 -191 -93 -42 0 -91 6
-110 14 -48 19 -89 49 -89 65 0 20 86 69 102 58 22 -14 82 -33 105 -33 12 0
38 14 58 31 27 24 35 39 35 66 0 55 -41 112 -80 113 -8 0 -28 7 -44 15 -15 8
-37 15 -47 15 -27 0 -95 45 -115 75 -23 35 -29 98 -14 150 14 51 72 109 125
125 54 17 136 6 183 -23z"/>
<path d="M3670 7733 c-1 -10 -1 -725 0 -735 0 -12 319 -10 381 2 81 15 134 45
198 108 89 88 106 126 106 247 0 100 -5 158 -14 150 -2 -3 -13 15 -25 38 -46
93 -155 168 -273 187 -69 12 -373 13 -373 3z m421 -43 c92 -31 136 -64 182
-136 48 -75 48 -75 54 -179 5 -81 -15 -163 -37 -150 -5 3 -12 0 -16 -6 -4 -8
-3 -9 4 -5 7 4 12 1 12 -9 0 -28 -97 -120 -157 -151 -57 -28 -61 -29 -249 -32
l-191 -4 1 346 0 346 168 0 c143 0 178 -3 229 -20z"/>
<path d="M3818 7604 c-5 -31 -3 -470 3 -474 4 -3 59 -2 122 1 136 7 161 18
223 99 47 62 59 109 46 181 -9 49 -16 60 -72 118 -73 74 -75 75 -202 79 -65 3
-119 1 -120 -4z m206 -35 c123 -31 190 -175 137 -292 -40 -87 -119 -127 -246
-124 l-70 2 -2 200 c-2 110 -1 206 2 213 6 15 119 16 179 1z"/>
<path d="M4264 7308 l-29 -33 33 29 c17 17 32 31 32 33 0 8 -8 1 -36 -29z"/>
<path d="M4220 7260 c-9 -6 -10 -10 -3 -10 6 0 15 5 18 10 8 12 4 12 -15 0z"/>
<path d="M4450 7605 c0 -74 0 -242 -1 -372 l0 -238 31 -3 c20 -2 28 -7 24 -15
-5 -8 -3 -8 7 1 9 9 68 12 220 12 l207 0 -4 76 c-1 42 -6 79 -9 83 -4 3 -61 7
-128 7 -67 1 -132 2 -144 3 -22 1 -23 5 -23 76 l0 74 118 -1 c64 0 125 0 135
1 15 1 17 12 17 81 l0 80 -135 0 -135 0 0 53 0 54 98 -3 c137 -5 132 -8 132
87 l0 79 -205 0 -205 0 0 -135z m380 60 c0 -38 -3 -45 -23 -50 -13 -4 -27 -5
-33 -4 -5 1 -46 1 -91 0 l-83 -1 0 -85 0 -85 135 0 135 0 0 -53 0 -52 -135 3
-135 3 0 -105 c0 -94 2 -106 18 -107 9 0 77 -1 150 -1 147 0 142 3 126 -76
l-6 -31 -185 0 c-101 0 -190 2 -198 6 -13 4 -15 56 -15 344 l0 339 170 0 170
0 0 -45z"/>
<path d="M4545 7068 l-40 -43 43 40 c23 21 42 40 42 42 0 8 -9 0 -45 -39z"/>
<path d="M8755 7720 c-3 -5 -2 -10 4 -10 5 0 13 5 16 10 3 6 2 10 -4 10 -5 0
-13 -4 -16 -10z"/>
<path d="M6514 7698 l-19 -23 23 19 c21 18 27 26 19 26 -2 0 -12 -10 -23 -22z"/>
<path d="M8614 7658 l-19 -23 23 19 c21 18 27 26 19 26 -2 0 -12 -10 -23 -22z"/>
<path d="M8554 7608 l-19 -23 23 19 c21 18 27 26 19 26 -2 0 -12 -10 -23 -22z"/>
<path d="M8164 7568 l-19 -23 23 19 c21 18 27 26 19 26 -2 0 -12 -10 -23 -22z"/>
<path d="M8509 7563 c-13 -16 -12 -17 4 -4 9 7 17 15 17 17 0 8 -8 3 -21 -13z"/>
<path d="M4399 7523 l-24 -28 28 24 c25 23 32 31 24 31 -2 0 -14 -12 -28 -27z"/>
<path d="M8179 7493 c-13 -16 -12 -17 4 -4 9 7 17 15 17 17 0 8 -8 3 -21 -13z"/>
<path d="M8454 7488 l-19 -23 23 19 c21 18 27 26 19 26 -2 0 -12 -10 -23 -22z"/>
<path d="M8349 7423 l-24 -28 28 24 c15 14 27 26 27 28 0 8 -8 1 -31 -24z"/>
<path d="M6089 7343 l-34 -38 38 34 c34 33 42 41 34 41 -2 0 -19 -17 -38 -37z"/>
<path d="M9356 7343 c-6 -14 -5 -15 5 -6 7 7 10 15 7 18 -3 3 -9 -2 -12 -12z"/>
<path d="M9314 7298 l-19 -23 23 19 c21 18 27 26 19 26 -2 0 -12 -10 -23 -22z"/>
<path d="M6069 7283 c-13 -16 -12 -17 4 -4 9 7 17 15 17 17 0 8 -8 3 -21 -13z"/>
<path d="M9165 7198 l-60 -63 63 60 c58 55 67 65 59 65 -1 0 -29 -28 -62 -62z"/>
<path d="M8069 7163 c-13 -16 -12 -17 4 -4 16 13 21 21 13 21 -2 0 -10 -8 -17
-17z"/>
<path d="M9209 7113 c-13 -16 -12 -17 4 -4 9 7 17 15 17 17 0 8 -8 3 -21 -13z"/>
<path d="M9116 7092 l-19 -27 26 24 c28 26 32 31 20 31 -5 0 -17 -13 -27 -28z"/>
<path d="M7955 7060 c-10 -11 -16 -22 -13 -25 3 -3 13 4 23 15 10 11 16 22 13
25 -3 3 -13 -4 -23 -15z"/>
<path d="M8004 6998 l-19 -21 28 18 c28 18 33 25 19 25 -5 0 -17 -10 -28 -22z"/>
<path d="M7009 6973 l-24 -28 28 24 c15 14 27 26 27 28 0 8 -8 1 -31 -24z"/>
<path d="M6519 6973 c-13 -16 -12 -17 4 -4 16 13 21 21 13 21 -2 0 -10 -8 -17
-17z"/>
<path d="M8289 6963 c-13 -16 -12 -17 4 -4 16 13 21 21 13 21 -2 0 -10 -8 -17
-17z"/>
<path d="M8459 6943 c-13 -16 -12 -17 4 -4 16 13 21 21 13 21 -2 0 -10 -8 -17
-17z"/>
<path d="M4459 6923 l-24 -28 28 24 c25 23 32 31 24 31 -2 0 -14 -12 -28 -27z"/>
<path d="M5029 6923 l-24 -28 28 24 c25 23 32 31 24 31 -2 0 -14 -12 -28 -27z"/>
<path d="M7919 6893 c-13 -16 -12 -17 4 -4 9 7 17 15 17 17 0 8 -8 3 -21 -13z"/>
<path d="M4430 6845 c-24 -25 -42 -45 -39 -45 3 0 25 20 49 45 24 25 42 45 39
45 -3 0 -25 -20 -49 -45z"/>
<path d="M5159 6843 c-13 -16 -12 -17 4 -4 9 7 17 15 17 17 0 8 -8 3 -21 -13z"/>
<path d="M5581 6836 c-13 -14 -18 -26 -12 -30 5 -4 12 -2 16 4 3 5 3 10 -1 10
-4 0 1 9 11 20 26 28 13 25 -14 -4z"/>
<path d="M8504 6828 l-19 -23 23 19 c12 11 22 21 22 23 0 8 -8 2 -26 -19z"/>
<path d="M6824 6808 l-19 -23 23 19 c21 18 27 26 19 26 -2 0 -12 -10 -23 -22z"/>
<path d="M6929 6793 l-24 -28 28 24 c25 23 32 31 24 31 -2 0 -14 -12 -28 -27z"/>
<path d="M6079 6793 c-13 -16 -12 -17 4 -4 9 7 17 15 17 17 0 8 -8 3 -21 -13z"/>
<path d="M8204 6788 l-19 -23 23 19 c21 18 27 26 19 26 -2 0 -12 -10 -23 -22z"/>
<path d="M5799 6773 l-24 -28 28 24 c15 14 27 26 27 28 0 8 -8 1 -31 -24z"/>
<path d="M8449 6763 l-24 -28 28 24 c15 14 27 26 27 28 0 8 -8 1 -31 -24z"/>
<path d="M4864 6738 l-19 -23 23 19 c21 18 27 26 19 26 -2 0 -12 -10 -23 -22z"/>
<path d="M8594 6718 l-29 -33 33 29 c30 28 37 36 29 36 -2 0 -16 -15 -33 -32z"/>
<path d="M5519 6693 l-24 -28 28 24 c15 14 27 26 27 28 0 8 -8 1 -31 -24z"/>
<path d="M8849 6663 c-13 -16 -12 -17 4 -4 9 7 17 15 17 17 0 8 -8 3 -21 -13z"/>
<path d="M5125 6588 c-28 -29 -43 -47 -34 -40 9 6 20 8 25 4 5 -4 6 -3 1 2 -4
6 9 27 30 48 20 21 35 38 32 38 -3 0 -27 -23 -54 -52z"/>
<path d="M6960 6629 c0 -5 5 -7 10 -4 6 3 10 8 10 11 0 2 -4 4 -10 4 -5 0 -10
-5 -10 -11z"/>
<path d="M8664 6618 l-19 -23 23 19 c21 18 27 26 19 26 -2 0 -12 -10 -23 -22z"/>
<path d="M5930 6594 c0 -8 5 -12 10 -9 6 3 10 10 10 16 0 5 -4 9 -10 9 -5 0
-10 -7 -10 -16z"/>
<path d="M6685 6573 l-17 -28 23 22 c12 12 20 25 17 28 -3 3 -13 -7 -23 -22z"/>
<path d="M4849 6563 c-13 -16 -12 -17 4 -4 16 13 21 21 13 21 -2 0 -10 -8 -17
-17z"/>
<path d="M5315 6470 c-38 -38 -67 -70 -64 -70 3 0 37 32 76 70 38 39 67 70 64
70 -4 0 -38 -31 -76 -70z"/>
<path d="M7272 6485 l-37 -36 48 31 c26 17 47 33 47 36 0 13 -25 0 -58 -31z"/>
<path d="M8364 6498 l-19 -23 23 19 c21 18 27 26 19 26 -2 0 -12 -10 -23 -22z"/>
<path d="M8094 6438 l-29 -33 33 29 c30 28 37 36 29 36 -2 0 -16 -15 -33 -32z"/>
<path d="M7445 6430 c-16 -16 -25 -30 -19 -29 8 0 60 59 52 59 -3 0 -17 -13
-33 -30z"/>
<path d="M5879 6413 c-13 -16 -12 -17 4 -4 9 7 17 15 17 17 0 8 -8 3 -21 -13z"/>
<path d="M7215 6419 c-4 -6 -5 -12 -2 -15 2 -3 7 2 10 11 7 17 1 20 -8 4z"/>
<path d="M5805 6348 l-40 -43 43 40 c39 36 47 45 39 45 -2 0 -21 -19 -42 -42z"/>
<path d="M7249 6313 c-13 -16 -12 -17 4 -4 9 7 17 15 17 17 0 8 -8 3 -21 -13z"/>
<path d="M7510 6317 c-15 -12 -54 -67 -47 -67 2 0 18 18 36 40 34 42 36 47 11
27z"/>
<path d="M6236 6293 c-6 -14 -5 -15 5 -6 7 7 10 15 7 18 -3 3 -9 -2 -12 -12z"/>
<path d="M7014 6288 l-19 -23 23 19 c21 18 27 26 19 26 -2 0 -12 -10 -23 -22z"/>
<path d="M7219 6273 c-13 -16 -12 -17 4 -4 9 7 17 15 17 17 0 8 -8 3 -21 -13z"/>
<path d="M5564 6248 l-29 -31 33 23 c17 13 32 27 32 32 0 13 -5 10 -36 -24z"/>
<path d="M8060 6225 c-24 -25 -42 -45 -39 -45 3 0 25 20 49 45 24 25 42 45 39
45 -3 0 -25 -20 -49 -45z"/>
<path d="M5519 6193 c-13 -16 -12 -17 4 -4 9 7 17 15 17 17 0 8 -8 3 -21 -13z"/>
<path d="M6260 6175 c-7 -9 -10 -18 -7 -21 3 -3 10 4 17 15 13 25 8 27 -10 6z"/>
<path d="M7099 6173 c-13 -16 -12 -17 4 -4 16 13 21 21 13 21 -2 0 -10 -8 -17
-17z"/>
<path d="M7619 6093 c-13 -16 -12 -17 4 -4 9 7 17 15 17 17 0 8 -8 3 -21 -13z"/>
<path d="M7615 6018 l-80 -83 83 80 c45 44 82 81 82 82 0 8 -11 -3 -85 -79z"/>
<path d="M5055 6048 l-40 -43 43 40 c23 21 42 40 42 42 0 8 -9 0 -45 -39z"/>
<path d="M7810 6060 c-19 -16 -30 -30 -24 -30 5 0 23 14 39 30 36 38 30 38
-15 0z"/>
<path d="M5329 6063 c-13 -16 -12 -17 4 -4 9 7 17 15 17 17 0 8 -8 3 -21 -13z"/>
<path d="M7105 6028 l-50 -53 53 50 c48 46 57 55 49 55 -1 0 -25 -24 -52 -52z"/>
<path d="M8389 6043 l-24 -28 28 24 c15 14 27 26 27 28 0 8 -8 1 -31 -24z"/>
<path d="M8170 5975 c-24 -25 -42 -45 -39 -45 3 0 25 20 49 45 24 25 42 45 39
45 -3 0 -25 -20 -49 -45z"/>
<path d="M7135 5860 c-3 -5 -2 -10 4 -10 5 0 13 5 16 10 3 6 2 10 -4 10 -5 0
-13 -4 -16 -10z"/>
<path d="M7297 5808 c-23 -22 -31 -33 -17 -22 36 28 74 64 66 64 -4 0 -26 -19
-49 -42z"/>
<path d="M7599 5833 c-13 -16 -12 -17 4 -4 9 7 17 15 17 17 0 8 -8 3 -21 -13z"/>
<path d="M8249 5823 c-13 -16 -12 -17 4 -4 9 7 17 15 17 17 0 8 -8 3 -21 -13z"/>
<path d="M7144 5778 l-19 -23 23 19 c21 18 27 26 19 26 -2 0 -12 -10 -23 -22z"/>
<path d="M7055 5780 c-3 -5 -2 -10 4 -10 5 0 13 5 16 10 3 6 2 10 -4 10 -5 0
-13 -4 -16 -10z"/>
<path d="M7162 5755 c-20 -19 -32 -35 -26 -35 5 0 25 16 44 35 44 45 31 45
-18 0z"/>
<path d="M6599 5743 l-24 -28 28 24 c15 14 27 26 27 28 0 8 -8 1 -31 -24z"/>
<path d="M5649 5693 l-24 -28 28 24 c15 14 27 26 27 28 0 8 -8 1 -31 -24z"/>
<path d="M6139 5673 c-13 -16 -12 -17 4 -4 16 13 21 21 13 21 -2 0 -10 -8 -17
-17z"/>
<path d="M6074 5618 l-29 -33 33 29 c30 28 37 36 29 36 -2 0 -16 -15 -33 -32z"/>
<path d="M7746 5634 c-5 -14 -4 -15 9 -4 17 14 19 20 6 20 -5 0 -12 -7 -15
-16z"/>
<path d="M7109 5484 c-7 -9 -23 -20 -36 -25 -13 -5 -23 -16 -23 -26 0 -13 11
-7 40 22 22 21 40 40 40 42 0 7 -9 2 -21 -13z"/>
<path d="M6194 5458 l-29 -33 33 29 c30 28 37 36 29 36 -2 0 -16 -15 -33 -32z"/>
<path d="M6299 5423 c-13 -16 -12 -17 4 -4 9 7 17 15 17 17 0 8 -8 3 -21 -13z"/>
</g>
</svg>
