<?xml version="1.0" encoding="utf-8"?>
<!-- Generator: Adobe Illustrator 24.0.3, SVG Export Plug-In . SVG Version: 6.00 Build 0)  -->
<svg version="1.1" id="Layer_1" xmlns="http://www.w3.org/2000/svg" xmlns:xlink="http://www.w3.org/1999/xlink" x="0px" y="0px"
	 viewBox="0 0 1298 1607" style="enable-background:new 0 0 1298 1607;" xml:space="preserve">
<style type="text/css">
	.st0{fill:#24292e;}
	.st1{font-family:'MyriadPro-Regular';}
	.st2{font-size:12px;}
</style>
<g transform="translate(0.000000,1607.000000) scale(0.100000,-0.100000)">
	<path class="st0" d="M6916,10692l-29-37l34,32c18,18,31,35,28,37C6946,10727,6931,10712,6916,10692z"/>
	<path class="st0" d="M7134,10638l-19-23l23,19c21,18,27,26,19,26C7155,10660,7145,10650,7134,10638z"/>
	<path class="st0" d="M6164,10598l-19-23l23,19c21,18,27,26,19,26C6185,10620,6175,10610,6164,10598z"/>
	<path class="st0" d="M6405,10558l-50-53l53,50c48,46,57,55,49,55C6456,10610,6432,10586,6405,10558z"/>
	<path class="st0" d="M6049,10563l-24-28l28,24c15,14,27,26,27,28C6080,10595,6072,10588,6049,10563z"/>
	<path class="st0" d="M7189,10413c-13-16-12-17,4-4c9,7,17,15,17,17C7210,10434,7202,10429,7189,10413z"/>
	<path class="st0" d="M5509,10403c-13-16-12-17,4-4s21,21,13,21C5524,10420,5516,10412,5509,10403z"/>
	<path class="st0" d="M5597,10318l-52-51l50,43c71,61,70,60,61,60C5652,10370,5625,10347,5597,10318z"/>
	<path class="st0" d="M8259,10243c-13-16-12-17,4-4s21,21,13,21C8274,10260,8266,10252,8259,10243z"/>
	<path class="st0" d="M7025,10188l-40-43l43,40c39,36,47,45,39,45C7065,10230,7046,10211,7025,10188z"/>
	<path class="st0" d="M8114,10198l-19-23l23,19c21,18,27,26,19,26C8135,10220,8125,10210,8114,10198z"/>
	<path class="st0" d="M8259,10193l-24-28l28,24c15,14,27,26,27,28C8290,10225,8282,10218,8259,10193z"/>
	<path class="st0" d="M7669,10163l-24-28l28,24c15,14,27,26,27,28C7700,10195,7692,10188,7669,10163z"/>
	<path class="st0" d="M7414,10138l-19-23l23,19c21,18,27,26,19,26C7435,10160,7425,10150,7414,10138z"/>
	<path class="st0" d="M8219,10143c-13-16-12-17,4-4c9,7,17,15,17,17C8240,10164,8232,10159,8219,10143z"/>
	<path class="st0" d="M7575,10078l-40-43l43,40c39,36,47,45,39,45C7615,10120,7596,10101,7575,10078z"/>
	<path class="st0" d="M5870,10090c-13-8-12-10,3-10c9,0,17,5,17,10C5890,10102,5889,10102,5870,10090z"/>
	<path class="st0" d="M8369,10063l-24-28l28,24c15,14,27,26,27,28C8400,10095,8392,10088,8369,10063z"/>
	<path class="st0" d="M6718,10013c-8-10-19-25-23-33c-8-13-7-13,9-1c16,14,41,51,33,51C6735,10030,6726,10022,6718,10013z"/>
	<path class="st0" d="M7499,10003c-13-16-12-17,4-4c9,7,17,15,17,17C7520,10024,7512,10019,7499,10003z"/>
	<path class="st0" d="M8455,9970c-10-11-23-17-29-13c-6,3-8,3-4-2c4-4,2-15-4-24c-7-9,5,0,25,18c20,19,37,36,37,38
		C8480,9994,8472,9989,8455,9970z"/>
	<path class="st0" d="M6214,9938l-19-23l23,19c21,18,27,26,19,26C6235,9960,6225,9950,6214,9938z"/>
	<path class="st0" d="M5719,9933c-13-16-12-17,4-4c9,7,17,15,17,17C5740,9954,5732,9949,5719,9933z"/>
	<path class="st0" d="M6390,9920c-19-17-30-30-24-30s23,14,39,30C6441,9958,6435,9958,6390,9920z"/>
	<path class="st0" d="M7024,9928l-19-23l23,19c21,18,27,26,19,26C7045,9950,7035,9940,7024,9928z"/>
	<path class="st0" d="M6629,9913c-13-16-12-17,4-4c9,7,17,15,17,17C6650,9934,6642,9929,6629,9913z"/>
	<path class="st0" d="M8689,9883c-13-16-12-17,4-4c9,7,17,15,17,17C8710,9904,8702,9899,8689,9883z"/>
	<path class="st0" d="M8137,9858c-31-31-31-32-2-8c16,14,34,28,40,32c5,5,6,8,2,8S8155,9875,8137,9858z"/>
	<path class="st0" d="M5664,9858l-19-23l23,19c21,18,27,26,19,26C5685,9880,5675,9870,5664,9858z"/>
	<path class="st0" d="M7685,9850c-10-11-16-22-14-24s12,7,22,20C7715,9875,7710,9878,7685,9850z"/>
	<path class="st0" d="M8260,9850c-9-6-10-10-3-10c6,0,15,5,18,10C8283,9862,8279,9862,8260,9850z"/>
	<path class="st0" d="M6954,9828l-19-23l23,19c21,18,27,26,19,26C6975,9850,6965,9840,6954,9828z"/>
	<path class="st0" d="M6469,9813c-13-16-12-17,4-4c9,7,17,15,17,17C6490,9834,6482,9829,6469,9813z"/>
	<path class="st0" d="M6064,9728l-29-33l33,29c30,28,37,36,29,36C6095,9760,6081,9745,6064,9728z"/>
	<path class="st0" d="M8149,9693l-24-28l28,24c15,14,27,26,27,28C8180,9725,8172,9718,8149,9693z"/>
	<path class="st0" d="M7284,9668l-29-33l33,29c30,28,37,36,29,36C7315,9700,7301,9685,7284,9668z"/>
	<path class="st0" d="M5079,9673c-13-16-12-17,4-4c9,7,17,15,17,17C5100,9694,5092,9689,5079,9673z"/>
	<path class="st0" d="M8359,9663c-13-16-12-17,4-4c9,7,17,15,17,17C8380,9684,8372,9679,8359,9663z"/>
	<path class="st0" d="M8209,9633c-13-16-12-17,4-4c9,7,17,15,17,17C8230,9654,8222,9649,8209,9633z"/>
	<path class="st0" d="M6439,9603c-13-16-12-17,4-4c9,7,17,15,17,17C6460,9624,6452,9619,6439,9603z"/>
	<path class="st0" d="M8074,9598l-19-23l23,19c21,18,27,26,19,26C8095,9620,8085,9610,8074,9598z"/>
	<path class="st0" d="M8344,9588l-29-33l33,29c30,28,37,36,29,36C8375,9620,8361,9605,8344,9588z"/>
	<path class="st0" d="M7659,9583c-13-16-12-17,4-4c9,7,17,15,17,17C7680,9604,7672,9599,7659,9583z"/>
	<path class="st0" d="M7409,9563l-24-28l28,24c15,14,27,26,27,28C7440,9595,7432,9588,7409,9563z"/>
	<path class="st0" d="M4945,9538l-40-43l43,40c23,21,42,40,42,42C4990,9585,4981,9577,4945,9538z"/>
	<path class="st0" d="M7549,9553l-24-28l28,24c15,14,27,26,27,28C7580,9585,7572,9578,7549,9553z"/>
	<path class="st0" d="M7854,9538l-29-33l33,29c30,28,37,36,29,36C7885,9570,7871,9555,7854,9538z"/>
	<path class="st0" d="M6717,9543c-4-3-7-11-7-17s5-5,12,2c6,6,9,14,7,17C6726,9548,6720,9547,6717,9543z"/>
	<path class="st0" d="M6550,9483l-55-58l58,55c31,30,57,56,57,57C6610,9545,6600,9536,6550,9483z"/>
	<path class="st0" d="M7959,9503c-13-16-12-17,4-4c9,7,17,15,17,17C7980,9524,7972,9519,7959,9503z"/>
	<path class="st0" d="M8704,9448l-19-23l23,19c12,11,22,21,22,23C8730,9475,8722,9469,8704,9448z"/>
	<path class="st0" d="M6090,9445c-7-8-16-13-20-10c-5,3-11,2-14-3c-10-17,24-8,41,10c9,10,14,18,11,18S6097,9453,6090,9445z"/>
	<path class="st0" d="M5044,9408l-29-33l33,29c17,17,32,31,32,33C5080,9445,5072,9438,5044,9408z"/>
	<path class="st0" d="M7300,9395c-7-8-8-15-2-15c5,0,15,7,22,15s8,15,2,15C7317,9410,7307,9403,7300,9395z"/>
	<path class="st0" d="M5399,9353c-13-16-12-17,4-4c9,7,17,15,17,17C5420,9374,5412,9369,5399,9353z"/>
	<path class="st0" d="M5809,9353c-13-16-12-17,4-4c9,7,17,15,17,17C5830,9374,5822,9369,5809,9353z"/>
	<path class="st0" d="M8194,9348l-19-23l23,19c21,18,27,26,19,26C8215,9370,8205,9360,8194,9348z"/>
	<path class="st0" d="M8444,9328l-29-33l33,29c30,28,37,36,29,36C8475,9360,8461,9345,8444,9328z"/>
	<path class="st0" d="M5285,9320c-10-11-16-22-14-24s12,7,22,20C5315,9345,5310,9348,5285,9320z"/>
	<path class="st0" d="M6214,9318l-19-23l23,19c21,18,27,26,19,26C6235,9340,6225,9330,6214,9318z"/>
	<path class="st0" d="M8094,9308l-19-23l23,19c21,18,27,26,19,26C8115,9330,8105,9320,8094,9308z"/>
	<path class="st0" d="M4772,9297c-12-13-22-27-22-31s11,5,25,20s25,29,25,30C4800,9324,4793,9319,4772,9297z"/>
	<path class="st0" d="M4589,9273l-24-28l28,24c25,23,32,31,24,31C4615,9300,4603,9288,4589,9273z"/>
	<path class="st0" d="M4919,9283c-13-16-12-17,4-4c9,7,17,15,17,17C4940,9304,4932,9299,4919,9283z"/>
	<path class="st0" d="M5030,9285c-7-9-11-18-8-20c3-3,11,1,18,10s11,18,8,20C5045,9298,5037,9294,5030,9285z"/>
	<path class="st0" d="M5285,9279c-11-17,1-21,15-4c8,9,8,15,2,15S5288,9285,5285,9279z"/>
	<path class="st0" d="M6167,9253c-10-9-9-23,2-23c5,0,11,7,15,15C6189,9260,6179,9265,6167,9253z"/>
	<path class="st0" d="M4654,9218l-19-23l23,19c21,18,27,26,19,26C4675,9240,4665,9230,4654,9218z"/>
	<path class="st0" d="M5769,9203l-34-38l38,34c20,19,37,36,37,38C5810,9245,5802,9237,5769,9203z"/>
	<path class="st0" d="M7694,9218l-19-23l23,19c21,18,27,26,19,26C7715,9240,7705,9230,7694,9218z"/>
	<path class="st0" d="M4804,9198l-29-33l33,29c30,28,37,36,29,36C4835,9230,4821,9215,4804,9198z"/>
	<path class="st0" d="M6125,9200c-3-6,1-7,9-4c18,7,21,14,7,14C6135,9210,6128,9206,6125,9200z"/>
	<path class="st0" d="M4339,9183c-13-16-12-17,4-4s21,21,13,21C4354,9200,4346,9192,4339,9183z"/>
	<path class="st0" d="M8270,9175c-7-8-8-15-2-15c5,0,15,7,22,15s8,15,2,15C8287,9190,8277,9183,8270,9175z"/>
	<path class="st0" d="M8541,9159c-13-11-22-22-19-24c2-3,15,6,28,20C8578,9185,8574,9187,8541,9159z"/>
	<path class="st0" d="M8959,9153l-24-28l28,24c15,14,27,26,27,28C8990,9185,8982,9178,8959,9153z"/>
	<path class="st0" d="M6374,9156c-10-8-16-17-13-20s14,3,24,14C6406,9173,6402,9176,6374,9156z"/>
	<path class="st0" d="M5719,9143c-13-16-12-17,4-4c9,7,17,15,17,17C5740,9164,5732,9159,5719,9143z"/>
	<path class="st0" d="M6439,9083l-34-38l38,34c34,33,42,41,34,41C6475,9120,6458,9103,6439,9083z"/>
	<path class="st0" d="M6939,9103c-13-16-12-17,4-4c9,7,17,15,17,17C6960,9124,6952,9119,6939,9103z"/>
	<path class="st0" d="M8427,9048c-10-11-17-22-14-24c2-2,12,5,22,16C8458,9066,8451,9073,8427,9048z"/>
	<path class="st0" d="M4547,9053c-4-3-7-11-7-17s5-5,12,2c6,6,9,14,7,17C4556,9058,4550,9057,4547,9053z"/>
	<path class="st0" d="M7035,9020c-21-22-37-41-34-43c2-2,21,16,43,40C7093,9071,7087,9073,7035,9020z"/>
	<path class="st0" d="M8189,9003l-34-38l38,34c34,33,42,41,34,41C8225,9040,8208,9023,8189,9003z"/>
	<path class="st0" d="M4579,9003c-13-16-12-17,4-4s21,21,13,21C4594,9020,4586,9012,4579,9003z"/>
	<path class="st0" d="M7575,8944c-33-31-51-51-40-45c19,9,115,101,105,101C7637,8999,7608,8974,7575,8944z"/>
	<path class="st0" d="M7149,8913l-34-38l38,34c20,19,37,36,37,38C7190,8955,7182,8947,7149,8913z"/>
	<path class="st0" d="M5878,8909c-20-18-25-26-13-21c21,11,63,52,52,52C5913,8940,5896,8926,5878,8909z"/>
	<path class="st0" d="M8439,8913c-13-16-12-17,4-4c9,7,17,15,17,17C8460,8934,8452,8929,8439,8913z"/>
	<path class="st0" d="M5669,8893c-13-16-12-17,4-4c9,7,17,15,17,17C5690,8914,5682,8909,5669,8893z"/>
	<path class="st0" d="M6231,8887c-13-21-12-21,5-5c10,10,16,20,13,22C6246,8907,6238,8899,6231,8887z"/>
	<path class="st0" d="M6879,8893c-13-16-12-17,4-4c9,7,17,15,17,17C6900,8914,6892,8909,6879,8893z"/>
	<path class="st0" d="M4299,8853c-13-16-12-17,4-4s21,21,13,21C4314,8870,4306,8862,4299,8853z"/>
	<path class="st0" d="M5535,8850c-16-18-31-20-152-20h-133l-2-147c-1-82-3-127-5-101c-2,25-11,52-19,58c-7,7-14,17-14,22
		c0,17-93,108-117,114c-13,4-23,10-23,15s-20,14-45,20s-43,14-41,18c2,3-102,4-232,1l-237-5l-20-36c-22-40-66-109-96-151
		c-10-15-19-32-19-38c0-16-20-12-27,6c-3,9-15,26-27,39c-35,37-97,149-93,166c4,13-10,16-89,18c-69,2-94-1-94-10
		c0-19,80-149,110-179c8-8,74-112,93-146c15-28,15-33,2-44c-8-7-15-19-15-27s-10-28-22-43c-13-16-38-53-57-84c-18-30-39-60-47-67
		c-8-6-12-15-9-19s-2-14-11-21c-8-7-14-8-13-3c8,43,6,44-150,44h-149v90v89l136,3l137,3l-3,65c-2,35-6,68-8,72c-3,5-63,8-134,8h-129
		v60l1,60l66,1c37,0,90,1,117,2l50,2l1,60c0,33-4,66-9,73c-7,9-58,12-191,12h-182l-1-360c0-261,3-360,11-361c6-1,18-3,26-4
		c8,0,23-5,33-9c9-5,23-4,30,1c18,14,173,17,182,4c3-6,12-8,18-4c18,11,121,10,129-1c5-7,8-5,8,4c0,13,1,13,10,0c8-12,11-13,19-1
		c5,8,11,10,15,3c11-19,74-8,100,18c15,13,26,29,26,35s23,46,50,90c28,44,50,84,50,91c0,6,6,17,13,23c11,8,27-10,75-84
		c34-52,62-98,62-103s11-21,25-36s25-31,25-37c0-5,14-9,30-9c17,0,30,5,30,10c0,6,8,5,20-2c15-10,25-10,38-2c10,7,26,8,40,3
		c13-5,33-4,49,2c20,7,28,6,35-3c6-10,10-10,17,1c5,8,16,11,25,8c13-5,16,2,16,46v52h58c148-1,252,61,319,189c8,16,19,50,23,75
		c6,32,8-1,8-112c0-155,0-158-26-190l-26-32l27,24l27,24v-30c0-44,10-69,21-51c7,10,9,10,9-2c0-13,2-13,9-1c7,11,13,12,23,3
		c9-7,26-8,50-3c21,5,40,6,43,3c13-13,98-13,106,0c7,10,9,10,9,1c0-7,7-13,15-13s15,4,15,10s9,6,23,2c12-5,47-8,77-8l55,1l3,68
		c2,49,0,67-10,68c-7,0-75,0-150,1h-137v89v89h133h134l4,68c3,37,3,70,1,75c-2,4-35,7-74,7c-47,0-69,4-69,12c0,9-3,9-12,0
		c-17-17-92-16-82,1c6,10,4,10-7,0c-24-24-30-13-27,49l3,61l113-2l112-2l1,33c4,116,3,118-62,118c-51,0-52,0-34,20
		c10,11,16,20,13,20S5545,8861,5535,8850z M4690,8475c0-184-2-335-4-335c-8,0-74,97-105,155c-18,32-46,74-62,92c-16,19-29,42-29,51
		c0,10-5,23-10,28c-12,12,40,120,88,182c15,20,39,55,52,77c21,37,59,85,67,85C4688,8810,4690,8659,4690,8475z M5011,8654
		c47-29,69-74,69-139c0-103-69-165-184-165h-56v165v165h65C4958,8680,4978,8675,5011,8654z"/>
	<path class="st0" d="M4534,8428l-29-33l33,29c30,28,37,36,29,36C4565,8460,4551,8445,4534,8428z"/>
	<path class="st0" d="M4595,8349c-4-6-5-12-2-15c2-3,7,2,10,11C4610,8362,4604,8365,4595,8349z"/>
	<path class="st0" d="M6184,8848l-19-23l23,19c21,18,27,26,19,26C6205,8870,6195,8860,6184,8848z"/>
	<path class="st0" d="M6435,8850c-14-16-31-20-76-20c-32,0-60-4-63-9c-3-4-6-162-6-349c-1-259-4-343-13-351c-12-10-44,19-126,111
		l-24,27l62,60c43,42,61,66,61,84c0,14,4,28,9,31c4,3,9,40,10,83c2,108-22,171-89,231c-73,66-130,82-307,82h-143v-102
		c-1-57,0-179,0-271c1-124-3-173-12-185c-9-11-9-14-1-9c9,6,13-14,15-75l3-82l35-2c19,0,35-2,35-3s12-4,27-6c36-5,47,11,50,73l3,52
		h36c34,0,68-23,69-46c1-5,22-25,48-44c43-32,53-35,125-36c51-1,77,2,77,10c0,6,5,4,10-4c8-13,11-12,23,4c12,17,15,17,29,2
		c18-18,44-21,52-7c4,5,22,5,43,0c21-4,42-4,47,1c4,4,9,170,10,369c1,304-1,361-13,361c-11,0-10,5,4,20c10,11,16,20,13,20
		S6445,8861,6435,8850z M6049,8655c39-21,50-33,59-64c23-75,9-144-39-188c-20-18-123-43-178-43c-6,0-10,63-10,160v160h59
		C5985,8680,6013,8674,6049,8655z"/>
	<path class="st0" d="M5944,8498l-19-23l23,19c12,11,22,21,22,23C5970,8525,5962,8519,5944,8498z"/>
	<path class="st0" d="M8285,8828l-40-43l43,40c23,21,42,40,42,42C8330,8875,8321,8867,8285,8828z"/>
	<path class="st0" d="M6967,8832c-3-4-5-74-4-154c1-85-2-144-7-141c-5,4-6,0-1-6c4-7,8-111,8-232c1-122,5-215,9-211
		c13,13,59,2,51-12c-3-6,5-1,18,11c19,17,28,20,37,11c14-14,40,5,41,30c0,9,1,24,1,32c1,8-1,64-3,123s0,110,5,113c4,3,6,10,2,15
		c-26,42,1,98,33,66c14-14,14-18,2-34c-13-16-12-17,3-5c14,12,21,11,38-1c12-8,28-25,36-36c9-12,20-21,25-21c13,0,180-139,230-191
		c20-20,50-44,66-52c16-9,35-23,42-31c22-26,32-8,31,52c-2,111-3,588-1,624c1,20-4,40-10,44c-12,7-130,7-137-1c-2-2-3-92-3-200
		c1-108-1-201-5-206c-3-5-20,2-37,17c-18,14-52,42-77,62s-70,61-101,89c-31,29-59,50-62,46c-4-3-7-2-7,4c0,5-41,43-90,83
		c-50,40-99,84-110,97C6980,8830,6969,8837,6967,8832z M7130,8501c0-6-4-13-10-16c-5-3-10,1-10,9c0,9,5,16,10,16
		C7126,8510,7130,8506,7130,8501z"/>
	<path class="st0" d="M7921,8830c-18-4-46-17-62-29c-15-12-31-21-35-21c-15,0-79-65-111-113c-59-88-77-209-46-317c6-19,12-42,14-50
		s10-21,17-28c6-7,12-19,12-26s20-33,44-57c40-41,116-79,158-79c9,0,18-6,21-12c2-9,30-13,94-13c77,1,94,4,118,23c15,12,38,22,50,22
		c14,0,46,22,82,58c58,56,93,120,110,203l5,27l-75-1c-69-1-77-3-86-25c-6-12-11-29-11-37c0-25-86-103-126-114c-117-33-199,1-261,107
		c-50,85-23,242,50,293c38,28,112,48,156,44c67-6,147-50,170-93c11-20,10-27-6-45c-10-12,7,4,37,35c31,32,60,58,65,58
		c6,0,17,5,25,10c12,8,4,20-45,70c-33,33-65,60-72,60s-13,4-13,8c0,5-12,14-26,20c-15,8-22,17-18,25c5,9,4,9-5,1c-8-8-25-9-49-3
		C8057,8841,7967,8841,7921,8830z"/>
	<path class="st0" d="M6490,8633c-1-406,1-528,10-537c7-7,10-5,10,3c0,9,4,10,13,4c14-11,57-11,74,0c6,4,14,3,18-3c9-14,68-13,83,2
		c9,9,12,9,12-3s2-12,10,1c9,13,10,13,10,0c0-12,2-13,9-1c6,9,14,10,22,5s34-10,59-10c101-3,100-3,93-21c-4-11,5-6,20,11
		c28,30,34,42,17,31c-5-3-10,21-12,57l-3,62l-95-3l-95-2l25,28l25,28l-31-27c-24-22-40-28-78-28h-47l2,88l2,87l136,5l136,5v70v70
		l-135,5l-135,5l-2,57l-1,57l116,3c108,3,117,5,120,23c2,11,16,33,30,50l27,30l-27-24l-27-23l-3,43l-3,44l-192,3l-193,2V8633z"/>
	<path class="st0" d="M8419,8823c-1-5-3-165-4-358c-1-192-5-357-9-366c-6-15-2-16,39-8c26,5,52,6,57,3c5-4,21-1,34,6
		c19,11,26,11,39,0c12-10,18-10,30,0s15,10,15-1c0-12,2-12,9,0c7,11,10,11,15,0s7-11,12-1s9,10,20,1c10-8,18-9,27,0c8,6,16,8,19,5
		c11-11,107-14,113-4c4,6,11,8,16,5c10-7,10-4,11,77l1,51l-147-2c-80-1-146,2-146,7c0,4,14,21,30,37c17,16,30,33,30,38s-12-5-26-22
		s-30-28-35-25c-8,4-7,70,0,136c1,4,61,9,134,10l132,3l1,62c1,39-3,66-11,73c-7,5-68,11-136,13l-124,2l-2,30c-1,21,6,38,24,57
		c25,27,31,28,120,28h94l-3,73l-3,72l-187,3C8504,8829,8419,8827,8419,8823z M8600,8677c0-2-9-12-19-21c-19-17-19-17-14,3
		c3,12,12,21,19,21C8594,8680,8600,8678,8600,8677z"/>
	<path class="st0" d="M7259,8783c-13-16-12-17,4-4c9,7,17,15,17,17C7280,8804,7272,8799,7259,8783z"/>
	<path class="st0" d="M7344,8718l-19-23l23,19c12,11,22,21,22,23C7370,8745,7362,8739,7344,8718z"/>
	<path class="st0" d="M9179,8703l-24-28l28,24c15,14,27,26,27,28C9210,8735,9202,8728,9179,8703z"/>
	<path class="st0" d="M8889,8533c-13-16-12-17,4-4c9,7,17,15,17,17C8910,8554,8902,8549,8889,8533z"/>
	<path class="st0" d="M5640,8369c0-5,5-7,10-4c6,3,10,8,10,11c0,2-4,4-10,4C5645,8380,5640,8375,5640,8369z"/>
	<path class="st0" d="M8862,8347c-18-18-32-36-32-40c0-7,19,11,54,51C8913,8392,8898,8384,8862,8347z"/>
	<path class="st0" d="M8177,8343c-4-3-7-11-7-17s5-5,12,2c6,6,9,14,7,17C8186,8348,8180,8347,8177,8343z"/>
	<path class="st0" d="M7269,8193l-24-28l30,25c17,14,32,26,34,28c2,1,0,2-6,2C7298,8220,7283,8208,7269,8193z"/>
	<path class="st0" d="M8904,8178l-29-33l33,29c30,28,37,36,29,36C8935,8210,8921,8195,8904,8178z"/>
	<path class="st0" d="M4284,8158l-19-23l23,19c12,11,22,21,22,23C4310,8185,4302,8179,4284,8158z"/>
	<path class="st0" d="M7394,8088l-19-23l23,19c21,18,27,26,19,26C7415,8110,7405,8100,7394,8088z"/>
	<path class="st0" d="M7340,8029c0-5,5-7,10-4c6,3,10,8,10,11c0,2-4,4-10,4C7345,8040,7340,8035,7340,8029z"/>
	<path class="st0" d="M6509,8028c-5-18-6-38-1-34c7,8,12,36,6,36C6512,8030,6510,8029,6509,8028z"/>
	<path class="st0" d="M6649,8003c-13-16-12-17,4-4c9,7,17,15,17,17C6670,8024,6662,8019,6649,8003z"/>
	<path class="st0" d="M7049,7993l-24-28l28,24c15,14,27,26,27,28C7080,8025,7072,8018,7049,7993z"/>
	<path class="st0" d="M7280,7973l-45-47l45,39c41,35,58,55,48,55C7326,8020,7304,7999,7280,7973z"/>
	<path class="st0" d="M5274,7968l-29-33l33,29c30,28,37,36,29,36C5305,8000,5291,7985,5274,7968z"/>
	<path class="st0" d="M6599,7960c-13-10-19-19-13-20c6,0,19,9,29,20C6638,7986,6629,7986,6599,7960z"/>
	<path class="st0" d="M7499,7953c-13-16-12-17,4-4s21,21,13,21C7514,7970,7506,7962,7499,7953z"/>
	<path class="st0" d="M4839,7913l-24-28l28,24c25,23,32,31,24,31C4865,7940,4853,7928,4839,7913z"/>
	<path class="st0" d="M8569,7913l-24-28l28,24c15,14,27,26,27,28C8600,7945,8592,7938,8569,7913z"/>
	<path class="st0" d="M8824,7908l-19-23l23,19c21,18,27,26,19,26C8845,7930,8835,7920,8824,7908z"/>
	<path class="st0" d="M8619,7893c-13-16-12-17,4-4s21,21,13,21C8634,7910,8626,7902,8619,7893z"/>
	<path class="st0" d="M4444,7858l-19-23l23,19c21,18,27,26,19,26C4465,7880,4455,7870,4444,7858z"/>
	<path class="st0" d="M5025,7869c-4-6-5-12-2-15c2-3,7,2,10,11C5040,7882,5034,7885,5025,7869z"/>
	<path class="st0" d="M6710,7865c-7-9-10-18-7-21s10,4,17,15C6733,7884,6728,7886,6710,7865z"/>
	<path class="st0" d="M6547,7842c-10-10-14-22-10-25c7-8,43,21,43,35S6564,7861,6547,7842z"/>
	<path class="st0" d="M8444,7818l-29-33l33,29c30,28,37,36,29,36C8475,7850,8461,7835,8444,7818z"/>
	<path class="st0" d="M8949,7813l-24-28l28,24c15,14,27,26,27,28C8980,7845,8972,7838,8949,7813z"/>
	<path class="st0" d="M5519,7763c-13-16-12-17,4-4c9,7,17,15,17,17C5540,7784,5532,7779,5519,7763z"/>
	<path class="st0" d="M7670,7767c-8-8-37-22-65-32c-27-10-62-27-77-38c-57-42-85-173-54-260c22-64,101-111,219-132c30-5,41-13,54-41
		c15-31,15-37,0-68c-26-56-84-58-142-5c-20,18-21,17-65-16c-25-19-50-39-57-45c-7-5-17-10-23-10c-38,0,33-84,95-111
		c55-24,159-34,212-20c50,14,119,64,150,109c32,48,43,116,31,182c-6,30-11,67-11,82s-5,25-11,23c-6-3-29,11-50,31l-40,34l35,38
		l34,37l-42-39c-31-29-46-37-60-31c-10,5-25,10-33,11c-103,16-140,35-140,70c0,37,81,55,104,23c14-21,15-21,73,23c32,25,67,48,78,52
		c18,7,16,11-23,46c-27,24-64,45-100,55c-31,10-63,19-70,21s-10,8-7,14C7694,7784,7687,7782,7670,7767z M7776,7698
		c24-12,44-25,44-30c0-4,7-8,15-8c26,0,15-14-34-46l-48-30l-28,22c-23,18-33,20-59,13c-39-11-66-43-66-78c0-30,28-74,50-80
		c8-2,41-9,73-16c33-6,62-18,67-24c4-7,10-12,14-12c18,3,27-1,55-25c41-34,62-82,63-141c0-58-4-79-20-95c-7-7-12-19-12-27
		c0-23-42-59-100-87c-85-41-188-28-265,33c-19,15-35,31-35,35s20,19,44,33c42,24,47,25,73,11c55-28,99-30,138-6c19,12,40,30,45,40
		c15,28,12,76-5,94c-8,8-15,18-15,23c0,9-39,27-80,38c-74,19-177,75-189,102c-6,13-11,57-11,97c0,70,2,75,33,106c37,37,87,74,87,65
		c0-3,8-1,18,4C7658,7727,7730,7721,7776,7698z"/>
	<path class="st0" d="M7534,7498c-16-18-20-26-9-18c30,23,56,50,47,50C7567,7530,7551,7516,7534,7498z"/>
	<path class="st0" d="M8444,7758l-19-23l23,19c21,18,27,26,19,26C8465,7780,8455,7770,8444,7758z"/>
	<path class="st0" d="M9174,7758l-19-23l23,19c21,18,27,26,19,26C9195,7780,9185,7770,9174,7758z"/>
	<path class="st0" d="M6685,7382v-387l88-3l87-3l1,53c0,29,0,121,0,203c-1,83,2,145,7,140c4-6,30-29,57-52c28-23,77-67,110-97
		c33-31,68-59,78-62c9-3,17-10,17-15s6-9,13-9c6-1,30-16,51-35l39-35l-24-28l-24-27l25,22l26,22l26-23c15-12,47-35,73-51l45-29
		l-32-36c-18-19-7-10,25,20c31,30,57,56,57,59c0,2-11-6-24-18s-26-19-29-14c-3,4-3,80-1,168s4,165,4,170c0,6-1,103-2,218l-2,207h-87
		c-82,0-87-1-92-22c-3-13-4-94-3-181s-1-163-5-168c-7-12-78,33-130,81c-17,17-41,36-52,41c-18,10-17,14,24,57l44,47l-42-39
		c-40-37-43-38-65-24c-13,9-36,29-53,46c-16,16-45,38-63,49s-58,45-90,75c-31,30-62,57-67,60C6688,7766,6685,7641,6685,7382z
		 M6850,7589c105-81,152-129,145-148c-5-13-4-13,6-4c10,10,17,9,36-8c12-12,31-27,42-33s44-33,75-59c30-27,59-46,64-43s9,96,8,210
		l-2,204l59-1l59-2l3-115c2-111,1-116-24-145l-26-30l25,22l25,22l-2-187c-1-233-1-232-11-232c-6,0-61,45-162,133c-14,12-47,38-73,57
		c-86,63-107,82-107,96c0,8-7,14-15,14s-17,11-21,25c-3,14-10,22-15,19c-11-6-79,34-79,47c0,5-9,9-19,9c-19,0-20-9-20-177
		c0-98,0-193,0-210c-1-33-1-33-53-33h-53v257c0,142,4,264,9,272c6,9,5,12-1,8s-9,24-9,71l1,78l35-34C6769,7654,6814,7616,6850,7589z
		"/>
	<path class="st0" d="M6163,7745c-97-15-144-40-229-122c-52-50-63-68-82-128c-12-39-22-95-22-126c0-51-3-58-39-93
		c-23-22-41-34-45-27c-4,5-6,41-5,78s1,146,0,241l-1,172h-90h-90v-95c0-118,2-106-18-130c-16-19-16-19,1-6c16,13,17-1,17-253v-266
		h27h27l-35-37l-34-38l40,38c37,34,46,37,98,37h57l2,113c0,61,1,118,1,125c-1,7,2,11,5,7c3-3,22,11,42,30l37,36l12-30
		c6-17,17-46,23-63c22-58,135-167,207-200c36-16,70-27,77-24s15,2,18-2c6-5,84-4,117,2c98,19,184,67,215,121c12,21,27,41,33,43
		s11,10,11,17c0,13,14,49,44,114c6,13,11,49,11,79v56l-192,1h-193v-82v-82h86c85,0,109-5,88-19c-6-4-13-14-16-23
		c-9-23-133-62-178-56c-51,7-115,50-146,99c-21,32-26,54-27,102c0,34,5,77,12,97c22,67,110,130,181,128c43-1,71-9,65-18
		c-3-5,4-7,15-4s20,1,20-5s10-12,23-14c16-2,22-9,21-26c0-17,4-21,17-17c12,4,22-1,29-15c6-11,16-20,23-20c16,1,67,46,67,60
		c0,5,3,10,8,10c4,0,15,7,26,15c18,14,17,16-14,65c-39,61-99,103-176,123c-33,8-66,17-74,20S6208,7752,6163,7745z M6301,7709
		c84-27,90-31,77-48c-10-13-10-14,2-3c21,18,31,15,71-21c54-47,57-71,17-107c-38-35-48-37-55-10c-3,11-9,20-14,20s-17,8-27,18
		c-25,25-88,53-131,59c-56,8-114-13-166-59c-63-56-85-104-85-193c0-148,84-237,225-239c93-1,157,30,199,97c16,26,27,50,24,53
		s-48,6-99,7l-94,2l-3,53l-3,52h162h162l-7-60c-6-54-19-95-45-140c-4-8-16-32-26-52c-10-21-26-40-36-43c-9-3-20-12-23-20
		s-12-15-20-15c-9,0-32-10-53-21c-26-15-62-24-113-27c-72-5-74-4-60,14s14,18-4,4c-20-15-64-15-80,1c-6,5-19,9-29,9
		c-25,0-154,125-162,157c-5,20,1,34,27,62l33,36l-32-29c-33-29-53-28-53,4c0,10-4,22-10,25c-13,8-13,122-1,130c6,3,13,26,17,50
		c3,25,10,45,14,45s11,12,15,27c6,27,70,96,118,127C6096,7716,6227,7733,6301,7709z M5720,7453c-1-183-5-262-13-272c-9-12-9-13,1-7
		c9,5,12-12,12-73c0-80,0-81-26-81c-16,0-23,4-18,11c5,8,1,8-14,0c-11-6-32-11-46-11h-26v267v267l28,30c15,17,18,23,6,13
		c-11-9-24-17-27-17c-4,0-7,29-7,64v63l65,2l65,2V7453z"/>
	<path class="st0" d="M5949,7473c-13-16-12-17,4-4c9,7,17,15,17,17C5970,7494,5962,7489,5949,7473z"/>
	<path class="st0" d="M6509,7273c-13-16-12-17,4-4c9,7,17,15,17,17C6530,7294,6522,7289,6509,7273z"/>
	<path class="st0" d="M5140,7741c-8-6-17-8-21-6c-10,7-98-74-114-106c-17-33-20-170-5-199c15-28,56-70,68-70c6,0,12-3,14-8
		c3-8,135-52,154-52c21,0,54-46,54-76c0-35-35-74-67-74c-31,0-69,16-92,39c-20,20-20,20-63-12c-24-18-52-37-63-43s-21-18-23-25
		c-4-24,70-95,108-104c3-1,18-7,33-13c16-7,52-12,81-12c102,0,185,46,248,138c29,42,32,53,31,117c0,41-7,85-16,106
		c-16,37-69,89-90,89c-7,0-1,9,13,20c30,23,19,27-14,4c-14-9-27-11-30-6c-3,6-30,15-58,22c-92,20-117,31-123,50c-17,53,47,80,91,39
		l22-21l71,53l71,53l-27,29c-42,45-118,77-183,77C5180,7750,5148,7746,5140,7741z M5328,7687c23-15,42-31,42-36s-17-20-37-32
		c-21-13-41-28-45-33c-6-8-10-8-15,0c-11,15-48,34-67,34c-9,0-30-13-47-28c-26-23-32-37-33-73c-2-34,2-45,14-46c8-1,51-10,95-21
		c165-40,228-109,219-241c-3-45-10-61-44-102c-65-76-101-94-191-93c-42,0-91,6-110,14c-48,19-89,49-89,65c0,20,86,69,102,58
		c22-14,82-33,105-33c12,0,38,14,58,31c27,24,35,39,35,66c0,55-41,112-80,113c-8,0-28,7-44,15c-15,8-37,15-47,15c-27,0-95,45-115,75
		c-23,35-29,98-14,150c14,51,72,109,125,125C5199,7727,5281,7716,5328,7687z"/>
	<path class="st0" d="M3670,7733c-1-10-1-725,0-735c0-12,319-10,381,2c81,15,134,45,198,108c89,88,106,126,106,247
		c0,100-5,158-14,150c-2-3-13,15-25,38c-46,93-155,168-273,187C3974,7742,3670,7743,3670,7733z M4091,7690c92-31,136-64,182-136
		c48-75,48-75,54-179c5-81-15-163-37-150c-5,3-12,0-16-6c-4-8-3-9,4-5s12,1,12-9c0-28-97-120-157-151c-57-28-61-29-249-32l-191-4
		l1,346v346h168C4005,7710,4040,7707,4091,7690z"/>
	<path class="st0" d="M3818,7604c-5-31-3-470,3-474c4-3,59-2,122,1c136,7,161,18,223,99c47,62,59,109,46,181c-9,49-16,60-72,118
		c-73,74-75,75-202,79C3873,7611,3819,7609,3818,7604z M4024,7569c123-31,190-175,137-292c-40-87-119-127-246-124l-70,2l-2,200
		c-2,110-1,206,2,213C3851,7583,3964,7584,4024,7569z"/>
	<path class="st0" d="M4264,7308l-29-33l33,29c17,17,32,31,32,33C4300,7345,4292,7338,4264,7308z"/>
	<path class="st0" d="M4220,7260c-9-6-10-10-3-10c6,0,15,5,18,10C4243,7272,4239,7272,4220,7260z"/>
	<path class="st0" d="M4450,7605c0-74,0-242-1-372v-238l31-3c20-2,28-7,24-15c-5-8-3-8,7,1c9,9,68,12,220,12h207l-4,76
		c-1,42-6,79-9,83c-4,3-61,7-128,7c-67,1-132,2-144,3c-22,1-23,5-23,76v74l118-1c64,0,125,0,135,1c15,1,17,12,17,81v80h-135h-135v53
		v54l98-3c137-5,132-8,132,87v79h-205h-205V7605z M4830,7665c0-38-3-45-23-50c-13-4-27-5-33-4c-5,1-46,1-91,0l-83-1v-85v-85h135h135
		v-53v-52l-135,3l-135,3v-105c0-94,2-106,18-107c9,0,77-1,150-1c147,0,142,3,126-76l-6-31h-185c-101,0-190,2-198,6
		c-13,4-15,56-15,344v339h170h170V7665z"/>
	<path class="st0" d="M4545,7068l-40-43l43,40c23,21,42,40,42,42C4590,7115,4581,7107,4545,7068z"/>
	<path class="st0" d="M8755,7720c-3-5-2-10,4-10c5,0,13,5,16,10c3,6,2,10-4,10C8766,7730,8758,7726,8755,7720z"/>
	<path class="st0" d="M6514,7698l-19-23l23,19c21,18,27,26,19,26C6535,7720,6525,7710,6514,7698z"/>
	<path class="st0" d="M8614,7658l-19-23l23,19c21,18,27,26,19,26C8635,7680,8625,7670,8614,7658z"/>
	<path class="st0" d="M8554,7608l-19-23l23,19c21,18,27,26,19,26C8575,7630,8565,7620,8554,7608z"/>
	<path class="st0" d="M8164,7568l-19-23l23,19c21,18,27,26,19,26C8185,7590,8175,7580,8164,7568z"/>
	<path class="st0" d="M8509,7563c-13-16-12-17,4-4c9,7,17,15,17,17C8530,7584,8522,7579,8509,7563z"/>
	<path class="st0" d="M4399,7523l-24-28l28,24c25,23,32,31,24,31C4425,7550,4413,7538,4399,7523z"/>
	<path class="st0" d="M8179,7493c-13-16-12-17,4-4c9,7,17,15,17,17C8200,7514,8192,7509,8179,7493z"/>
	<path class="st0" d="M8454,7488l-19-23l23,19c21,18,27,26,19,26C8475,7510,8465,7500,8454,7488z"/>
	<path class="st0" d="M8349,7423l-24-28l28,24c15,14,27,26,27,28C8380,7455,8372,7448,8349,7423z"/>
	<path class="st0" d="M6089,7343l-34-38l38,34c34,33,42,41,34,41C6125,7380,6108,7363,6089,7343z"/>
	<path class="st0" d="M9356,7343c-6-14-5-15,5-6c7,7,10,15,7,18S9359,7353,9356,7343z"/>
	<path class="st0" d="M9314,7298l-19-23l23,19c21,18,27,26,19,26C9335,7320,9325,7310,9314,7298z"/>
	<path class="st0" d="M6069,7283c-13-16-12-17,4-4c9,7,17,15,17,17C6090,7304,6082,7299,6069,7283z"/>
	<path class="st0" d="M9165,7198l-60-63l63,60c58,55,67,65,59,65C9226,7260,9198,7232,9165,7198z"/>
	<path class="st0" d="M8069,7163c-13-16-12-17,4-4s21,21,13,21C8084,7180,8076,7172,8069,7163z"/>
	<path class="st0" d="M9209,7113c-13-16-12-17,4-4c9,7,17,15,17,17C9230,7134,9222,7129,9209,7113z"/>
	<path class="st0" d="M9116,7092l-19-27l26,24c28,26,32,31,20,31C9138,7120,9126,7107,9116,7092z"/>
	<path class="st0" d="M7955,7060c-10-11-16-22-13-25s13,4,23,15s16,22,13,25S7965,7071,7955,7060z"/>
	<path class="st0" d="M8004,6998l-19-21l28,18c28,18,33,25,19,25C8027,7020,8015,7010,8004,6998z"/>
	<path class="st0" d="M7009,6973l-24-28l28,24c15,14,27,26,27,28C7040,7005,7032,6998,7009,6973z"/>
	<path class="st0" d="M6519,6973c-13-16-12-17,4-4s21,21,13,21C6534,6990,6526,6982,6519,6973z"/>
	<path class="st0" d="M8289,6963c-13-16-12-17,4-4s21,21,13,21C8304,6980,8296,6972,8289,6963z"/>
	<path class="st0" d="M8459,6943c-13-16-12-17,4-4s21,21,13,21C8474,6960,8466,6952,8459,6943z"/>
	<path class="st0" d="M4459,6923l-24-28l28,24c25,23,32,31,24,31C4485,6950,4473,6938,4459,6923z"/>
	<path class="st0" d="M5029,6923l-24-28l28,24c25,23,32,31,24,31C5055,6950,5043,6938,5029,6923z"/>
	<path class="st0" d="M7919,6893c-13-16-12-17,4-4c9,7,17,15,17,17C7940,6914,7932,6909,7919,6893z"/>
	<path class="st0" d="M4430,6845c-24-25-42-45-39-45s25,20,49,45s42,45,39,45S4454,6870,4430,6845z"/>
	<path class="st0" d="M5159,6843c-13-16-12-17,4-4c9,7,17,15,17,17C5180,6864,5172,6859,5159,6843z"/>
	<path class="st0" d="M5581,6836c-13-14-18-26-12-30c5-4,12-2,16,4c3,5,3,10-1,10s1,9,11,20C5621,6868,5608,6865,5581,6836z"/>
	<path class="st0" d="M8504,6828l-19-23l23,19c12,11,22,21,22,23C8530,6855,8522,6849,8504,6828z"/>
	<path class="st0" d="M6824,6808l-19-23l23,19c21,18,27,26,19,26C6845,6830,6835,6820,6824,6808z"/>
	<path class="st0" d="M6929,6793l-24-28l28,24c25,23,32,31,24,31C6955,6820,6943,6808,6929,6793z"/>
	<path class="st0" d="M6079,6793c-13-16-12-17,4-4c9,7,17,15,17,17C6100,6814,6092,6809,6079,6793z"/>
	<path class="st0" d="M8204,6788l-19-23l23,19c21,18,27,26,19,26C8225,6810,8215,6800,8204,6788z"/>
	<path class="st0" d="M5799,6773l-24-28l28,24c15,14,27,26,27,28C5830,6805,5822,6798,5799,6773z"/>
	<path class="st0" d="M8449,6763l-24-28l28,24c15,14,27,26,27,28C8480,6795,8472,6788,8449,6763z"/>
	<path class="st0" d="M4864,6738l-19-23l23,19c21,18,27,26,19,26C4885,6760,4875,6750,4864,6738z"/>
	<path class="st0" d="M8594,6718l-29-33l33,29c30,28,37,36,29,36C8625,6750,8611,6735,8594,6718z"/>
	<path class="st0" d="M5519,6693l-24-28l28,24c15,14,27,26,27,28C5550,6725,5542,6718,5519,6693z"/>
	<path class="st0" d="M8849,6663c-13-16-12-17,4-4c9,7,17,15,17,17C8870,6684,8862,6679,8849,6663z"/>
	<path class="st0" d="M5125,6588c-28-29-43-47-34-40c9,6,20,8,25,4s6-3,1,2c-4,6,9,27,30,48c20,21,35,38,32,38S5152,6617,5125,6588z
		"/>
	<path class="st0" d="M6960,6629c0-5,5-7,10-4c6,3,10,8,10,11c0,2-4,4-10,4C6965,6640,6960,6635,6960,6629z"/>
	<path class="st0" d="M8664,6618l-19-23l23,19c21,18,27,26,19,26C8685,6640,8675,6630,8664,6618z"/>
	<path class="st0" d="M5930,6594c0-8,5-12,10-9c6,3,10,10,10,16c0,5-4,9-10,9C5935,6610,5930,6603,5930,6594z"/>
	<path class="st0" d="M6685,6573l-17-28l23,22c12,12,20,25,17,28S6695,6588,6685,6573z"/>
	<path class="st0" d="M4849,6563c-13-16-12-17,4-4s21,21,13,21C4864,6580,4856,6572,4849,6563z"/>
	<path class="st0" d="M5315,6470c-38-38-67-70-64-70s37,32,76,70c38,39,67,70,64,70C5387,6540,5353,6509,5315,6470z"/>
	<path class="st0" d="M7272,6485l-37-36l48,31c26,17,47,33,47,36C7330,6529,7305,6516,7272,6485z"/>
	<path class="st0" d="M8364,6498l-19-23l23,19c21,18,27,26,19,26C8385,6520,8375,6510,8364,6498z"/>
	<path class="st0" d="M8094,6438l-29-33l33,29c30,28,37,36,29,36C8125,6470,8111,6455,8094,6438z"/>
	<path class="st0" d="M7445,6430c-16-16-25-30-19-29c8,0,60,59,52,59C7475,6460,7461,6447,7445,6430z"/>
	<path class="st0" d="M5879,6413c-13-16-12-17,4-4c9,7,17,15,17,17C5900,6434,5892,6429,5879,6413z"/>
	<path class="st0" d="M7215,6419c-4-6-5-12-2-15c2-3,7,2,10,11C7230,6432,7224,6435,7215,6419z"/>
	<path class="st0" d="M5805,6348l-40-43l43,40c39,36,47,45,39,45C5845,6390,5826,6371,5805,6348z"/>
	<path class="st0" d="M7249,6313c-13-16-12-17,4-4c9,7,17,15,17,17C7270,6334,7262,6329,7249,6313z"/>
	<path class="st0" d="M7510,6317c-15-12-54-67-47-67c2,0,18,18,36,40C7533,6332,7535,6337,7510,6317z"/>
	<path class="st0" d="M6236,6293c-6-14-5-15,5-6c7,7,10,15,7,18S6239,6303,6236,6293z"/>
	<path class="st0" d="M7014,6288l-19-23l23,19c21,18,27,26,19,26C7035,6310,7025,6300,7014,6288z"/>
	<path class="st0" d="M7219,6273c-13-16-12-17,4-4c9,7,17,15,17,17C7240,6294,7232,6289,7219,6273z"/>
	<path class="st0" d="M5564,6248l-29-31l33,23c17,13,32,27,32,32C5600,6285,5595,6282,5564,6248z"/>
	<path class="st0" d="M8060,6225c-24-25-42-45-39-45s25,20,49,45s42,45,39,45S8084,6250,8060,6225z"/>
	<path class="st0" d="M5519,6193c-13-16-12-17,4-4c9,7,17,15,17,17C5540,6214,5532,6209,5519,6193z"/>
	<path class="st0" d="M6260,6175c-7-9-10-18-7-21s10,4,17,15C6283,6194,6278,6196,6260,6175z"/>
	<path class="st0" d="M7099,6173c-13-16-12-17,4-4s21,21,13,21C7114,6190,7106,6182,7099,6173z"/>
	<path class="st0" d="M7619,6093c-13-16-12-17,4-4c9,7,17,15,17,17C7640,6114,7632,6109,7619,6093z"/>
	<path class="st0" d="M7615,6018l-80-83l83,80c45,44,82,81,82,82C7700,6105,7689,6094,7615,6018z"/>
	<path class="st0" d="M5055,6048l-40-43l43,40c23,21,42,40,42,42C5100,6095,5091,6087,5055,6048z"/>
	<path class="st0" d="M7810,6060c-19-16-30-30-24-30c5,0,23,14,39,30C7861,6098,7855,6098,7810,6060z"/>
	<path class="st0" d="M5329,6063c-13-16-12-17,4-4c9,7,17,15,17,17C5350,6084,5342,6079,5329,6063z"/>
	<path class="st0" d="M7105,6028l-50-53l53,50c48,46,57,55,49,55C7156,6080,7132,6056,7105,6028z"/>
	<path class="st0" d="M8389,6043l-24-28l28,24c15,14,27,26,27,28C8420,6075,8412,6068,8389,6043z"/>
	<path class="st0" d="M8170,5975c-24-25-42-45-39-45s25,20,49,45s42,45,39,45S8194,6000,8170,5975z"/>
	<path class="st0" d="M7135,5860c-3-5-2-10,4-10c5,0,13,5,16,10c3,6,2,10-4,10C7146,5870,7138,5866,7135,5860z"/>
	<path class="st0" d="M7297,5808c-23-22-31-33-17-22c36,28,74,64,66,64C7342,5850,7320,5831,7297,5808z"/>
	<path class="st0" d="M7599,5833c-13-16-12-17,4-4c9,7,17,15,17,17C7620,5854,7612,5849,7599,5833z"/>
	<path class="st0" d="M8249,5823c-13-16-12-17,4-4c9,7,17,15,17,17C8270,5844,8262,5839,8249,5823z"/>
	<path class="st0" d="M7144,5778l-19-23l23,19c21,18,27,26,19,26C7165,5800,7155,5790,7144,5778z"/>
	<path class="st0" d="M7055,5780c-3-5-2-10,4-10c5,0,13,5,16,10c3,6,2,10-4,10C7066,5790,7058,5786,7055,5780z"/>
	<path class="st0" d="M7162,5755c-20-19-32-35-26-35c5,0,25,16,44,35C7224,5800,7211,5800,7162,5755z"/>
	<path class="st0" d="M6599,5743l-24-28l28,24c15,14,27,26,27,28C6630,5775,6622,5768,6599,5743z"/>
	<path class="st0" d="M5649,5693l-24-28l28,24c15,14,27,26,27,28C5680,5725,5672,5718,5649,5693z"/>
	<path class="st0" d="M6139,5673c-13-16-12-17,4-4s21,21,13,21C6154,5690,6146,5682,6139,5673z"/>
	<path class="st0" d="M6074,5618l-29-33l33,29c30,28,37,36,29,36C6105,5650,6091,5635,6074,5618z"/>
	<path class="st0" d="M7746,5634c-5-14-4-15,9-4c17,14,19,20,6,20C7756,5650,7749,5643,7746,5634z"/>
	<path class="st0" d="M7109,5484c-7-9-23-20-36-25s-23-16-23-26c0-13,11-7,40,22c22,21,40,40,40,42C7130,5504,7121,5499,7109,5484z"
		/>
	<path class="st0" d="M6194,5458l-29-33l33,29c30,28,37,36,29,36C6225,5490,6211,5475,6194,5458z"/>
	<path class="st0" d="M6299,5423c-13-16-12-17,4-4c9,7,17,15,17,17C6320,5444,6312,5439,6299,5423z"/>
</g>
<text transform="matrix(1 0 0 1 643.1919 797.022)" class="st1 st2">/*</text>
</svg>
